<svg width="32" height="32" viewBox="0 0 32 32" fill="none" xmlns="http://www.w3.org/2000/svg">
<path d="M16.468 27.9993H11.5346C5.20129 27.9993 2.66797 25.466 2.66797 19.1327V11.5327C2.66797 5.19938 5.20129 2.66602 11.5346 2.66602H19.1346C25.468 2.66602 28.0013 5.19938 28.0013 11.5327V16.466" stroke="#D8DFF5" stroke-width="1.5" stroke-linecap="round" stroke-linejoin="round"/>
<path d="M8.96067 19.226C10.0284 19.226 10.894 18.3604 10.894 17.2926C10.894 16.2249 10.0284 15.3594 8.96067 15.3594C7.89292 15.3594 7.02734 16.2249 7.02734 17.2926C7.02734 18.3604 7.89292 19.226 8.96067 19.226Z" stroke="#D8DFF5" stroke-width="1.5" stroke-linecap="round" stroke-linejoin="round"/>
<path d="M17.9729 16V8.45334C17.9729 6.84001 16.9596 6.62663 15.9463 6.90663L12.0929 7.95994C11.3996 8.1466 10.9062 8.70665 10.9062 9.50665V10.8533V11.76V17.2933" stroke="#D8DFF5" stroke-width="1.5" stroke-linecap="round" stroke-linejoin="round"/>
<path d="M16.0427 17.9331C17.1105 17.9331 17.976 17.0675 17.976 15.9998C17.976 14.932 17.1105 14.0664 16.0427 14.0664C14.975 14.0664 14.1094 14.932 14.1094 15.9998C14.1094 17.0675 14.975 17.9331 16.0427 17.9331Z" stroke="#D8DFF5" stroke-width="1.5" stroke-linecap="round" stroke-linejoin="round"/>
<path d="M10.8945 11.7732L17.9745 9.83984" stroke="#D8DFF5" stroke-width="1.5" stroke-linecap="round" stroke-linejoin="round"/>
<path d="M23.919 28.3732C26.2754 28.3732 28.1857 26.4629 28.1857 24.1065C28.1857 21.7501 26.2754 19.8398 23.919 19.8398C21.5626 19.8398 19.6523 21.7501 19.6523 24.1065C19.6523 26.4629 21.5626 28.3732 23.919 28.3732Z" stroke="#D8DFF5" stroke-width="1.5" stroke-linecap="round" stroke-linejoin="round"/>
<path d="M28.9857 29.1732L27.6523 27.8398" stroke="#D8DFF5" stroke-width="1.5" stroke-linecap="round" stroke-linejoin="round"/>
</svg>
