<svg width="30" height="30" viewBox="0 0 30 30" fill="none" xmlns="http://www.w3.org/2000/svg">
<path d="M26.1383 13.9004C26.1383 20.0129 21.7008 25.7379 15.6383 27.4129C15.2258 27.5254 14.7758 27.5254 14.3633 27.4129C8.30077 25.7379 3.86328 20.0129 3.86328 13.9004V8.41285C3.86328 7.38785 4.6383 6.22535 5.6008 5.83785L12.5633 2.98789C14.1258 2.35039 15.8883 2.35039 17.4508 2.98789L24.4133 5.83785C25.3633 6.22535 26.1508 7.38785 26.1508 8.41285L26.1383 13.9004Z" stroke="#0C1329" stroke-width="1.5" stroke-linecap="round" stroke-linejoin="round"/>
<path d="M15 15.625C16.3807 15.625 17.5 14.5057 17.5 13.125C17.5 11.7443 16.3807 10.625 15 10.625C13.6193 10.625 12.5 11.7443 12.5 13.125C12.5 14.5057 13.6193 15.625 15 15.625Z" stroke="#0C1329" stroke-width="1.5" stroke-miterlimit="10" stroke-linecap="round" stroke-linejoin="round"/>
<path d="M15 15.625V19.375" stroke="#0C1329" stroke-width="1.5" stroke-miterlimit="10" stroke-linecap="round" stroke-linejoin="round"/>
</svg>
