<svg width="48" height="48" viewBox="0 0 48 48" fill="none" xmlns="http://www.w3.org/2000/svg">
<rect width="48" height="48" rx="24" fill="#D8DFF5"/>
<path d="M24.35 33H20.65C15.9 33 14 31.1 14 26.35V20.65C14 15.9 15.9 14 20.65 14H26.35C31.1 14 33 15.9 33 20.65V24.35" stroke="#304FAB" stroke-linecap="round" stroke-linejoin="round"/>
<path d="M18.7195 26.4195C19.5203 26.4195 20.1695 25.7703 20.1695 24.9695C20.1695 24.1687 19.5203 23.5195 18.7195 23.5195C17.9187 23.5195 17.2695 24.1687 17.2695 24.9695C17.2695 25.7703 17.9187 26.4195 18.7195 26.4195Z" stroke="#304FAB" stroke-linecap="round" stroke-linejoin="round"/>
<path d="M25.4797 23.9995V18.3395C25.4797 17.1295 24.7197 16.9695 23.9597 17.1795L21.0697 17.9695C20.5497 18.1095 20.1797 18.5295 20.1797 19.1295V20.1395V20.8195V24.9695" stroke="#304FAB" stroke-linecap="round" stroke-linejoin="round"/>
<path d="M24.0301 25.4489C24.8309 25.4489 25.4801 24.7997 25.4801 23.9988C25.4801 23.198 24.8309 22.5488 24.0301 22.5488C23.2293 22.5488 22.5801 23.198 22.5801 23.9988C22.5801 24.7997 23.2293 25.4489 24.0301 25.4489Z" stroke="#304FAB" stroke-linecap="round" stroke-linejoin="round"/>
<path d="M20.1699 20.8289L25.4799 19.3789" stroke="#304FAB" stroke-linecap="round" stroke-linejoin="round"/>
<path d="M29.9402 33.2809C31.7075 33.2809 33.1402 31.8482 33.1402 30.0809C33.1402 28.3136 31.7075 26.8809 29.9402 26.8809C28.1729 26.8809 26.7402 28.3136 26.7402 30.0809C26.7402 31.8482 28.1729 33.2809 29.9402 33.2809Z" stroke="#304FAB" stroke-linecap="round" stroke-linejoin="round"/>
<path d="M33.7402 33.8809L32.7402 32.8809" stroke="#304FAB" stroke-linecap="round" stroke-linejoin="round"/>
</svg>
