<svg width="190" height="35" viewBox="0 0 190 35" fill="none" xmlns="http://www.w3.org/2000/svg">
<path d="M96.0765 0.686668C93.549 1.57598 89.9294 2.87094 89.1337 3.16737C88.7904 3.30779 87.1054 3.91626 85.3892 4.52474C83.673 5.13321 82.0192 5.72609 81.7228 5.8509C81.4263 5.96011 79.1016 6.80262 76.5741 7.72313C71.2383 9.65776 67.525 11.0151 66.7449 11.3116C66.4485 11.4208 64.1238 12.2789 61.5963 13.1838C59.0688 14.1043 55.9796 15.2276 54.7315 15.6801C53.4833 16.1326 49.3488 17.6459 45.5264 19.0345C41.7039 20.4231 38.3339 21.6556 38.0374 21.7648C37.741 21.8897 36.7269 22.2641 35.7752 22.5917C34.8391 22.935 31.7031 24.0739 28.8323 25.1193C25.9616 26.1646 22.5604 27.4127 21.2654 27.8808C19.986 28.3488 18.6755 28.8325 18.379 28.9417C17.0217 29.4878 13.6829 30.6267 13.6361 30.5643C13.6049 30.5331 13.0744 29.0977 12.4503 27.3815C10.3441 21.5932 9.61077 19.5806 9.40795 19.0345C9.20512 18.5352 7.80095 14.6348 6.59961 11.3116C5.30465 7.69193 3.35441 2.51209 3.08918 1.91922C2.91756 1.54477 2.77714 1.17033 2.77714 1.07672C2.77714 0.983105 2.68353 1.01431 2.55871 1.13913C2.4339 1.26394 2.02825 1.40436 1.6694 1.46677C1.29496 1.52917 0.764493 1.7164 0.499261 1.88802L0 2.20005L0.670882 4.1815C1.02973 5.27363 1.6694 7.06785 2.07505 8.19119C2.4807 9.29892 3.38561 11.8264 4.1033 13.8079C4.82099 15.7737 6.14715 19.4714 7.06766 21.9989C7.97257 24.5264 8.81507 26.8511 8.93989 27.1475C9.06471 27.4439 9.73559 29.285 10.4377 31.2352L11.7014 34.7612L12.1071 34.6364C12.3411 34.574 13.1992 34.2776 14.0105 33.9655C15.8359 33.279 24.3234 30.1743 26.8821 29.2538C27.9118 28.8793 29.3472 28.3644 30.0805 28.0836C30.8138 27.8184 31.5783 27.5375 31.7967 27.4751C32.0151 27.3971 35.2135 26.2426 38.8955 24.8852C42.5932 23.5435 48.6935 21.3124 52.4692 19.9394C56.2449 18.5665 59.5837 17.3495 59.8801 17.2403C60.1765 17.1155 64.6075 15.5085 69.7093 13.6519C74.8111 11.7952 79.2421 10.1726 79.5385 10.0634C79.8349 9.9386 80.9739 9.53295 82.0504 9.1429C83.1269 8.75286 84.1879 8.37841 84.3907 8.3004C85.4984 7.86355 86.2317 7.58271 88.4004 6.80262C96.0453 3.99427 98.76 2.96455 98.8849 2.80853C98.9317 2.74612 99.1813 2.65251 99.4309 2.5745L99.899 2.46529L99.4621 2.30927C99.2281 2.23126 99.0877 2.09084 99.1345 2.01283C99.1813 1.91922 99.1345 1.7632 99.0409 1.63839C98.8849 1.45116 98.8849 1.40436 99.0565 1.40436C99.1813 1.40436 99.1501 1.32635 98.9785 1.20153C98.8069 1.07672 98.7132 0.889496 98.76 0.780281C98.8225 0.561855 98.37 0.00018692 98.1516 0.00018692C98.0736 0.00018692 97.1531 0.312225 96.0765 0.686668Z" fill="black"/>
<path d="M131.758 5.88224C131.711 5.96025 131.633 6.3971 131.571 6.86516C131.509 7.33321 131.368 8.17572 131.243 8.73739C130.885 10.4536 130.572 10.2976 134.208 10.2976H137.391L137.5 9.40827C137.562 8.90901 137.703 8.0509 137.827 7.48923C137.937 6.92757 138.046 6.31909 138.046 6.11627V5.77302H134.941C133.225 5.77302 131.789 5.81983 131.758 5.88224Z" fill="black"/>
<path d="M105.344 12.0296C102.458 12.3728 99.6495 14.1046 98.0425 16.5229C95.6554 20.0958 95.6866 24.4799 98.1049 26.7422C99.6183 28.1619 101.319 28.708 104.158 28.708C106.358 28.708 108.433 28.2556 110.009 27.4287C111.101 26.8514 113.036 25.026 113.426 24.1835L113.691 23.6374L110.727 23.5906L107.747 23.5594L107.201 24.0274C106.483 24.6671 106.077 24.8075 105.017 24.8075C103.55 24.8075 102.692 24.0586 102.52 22.6233L102.427 21.8432H108.449C113.098 21.8432 114.502 21.7964 114.596 21.6403C114.799 21.2971 114.846 18.5824 114.643 17.5838C113.863 13.5586 110.306 11.4211 105.344 12.0296ZM107.622 16.0705C108.309 16.4293 108.87 17.3186 108.87 18.0987V18.5668H105.984C103.924 18.5668 103.097 18.52 103.097 18.3951C103.097 17.9895 103.815 16.8038 104.252 16.4917C105.329 15.7272 106.639 15.5712 107.622 16.0705Z" fill="black"/>
<path d="M127.202 12.0138C125.736 12.2323 124.066 13.418 123.161 14.869C123.005 15.1186 122.865 15.2902 122.834 15.259C122.803 15.2278 122.881 14.6818 123.005 14.0421C123.364 12.1387 123.645 12.3103 120.384 12.3571L117.529 12.4039L117.264 13.8861C116.889 15.9455 116.562 17.7865 116.297 19.3467C116.172 20.08 115.922 21.5154 115.735 22.5451C114.986 26.7732 114.799 27.8654 114.799 28.1306C114.799 28.3802 115.017 28.3958 117.857 28.3646C120.4 28.3178 120.946 28.271 121.04 28.0838C121.118 27.959 121.289 27.1477 121.43 26.2896C121.929 23.2472 122.319 21.4374 122.615 20.7821C123.411 18.9567 124.628 18.1922 126.781 18.2078C127.483 18.2078 128.06 18.161 128.06 18.083C128.06 17.9582 128.763 13.9641 128.997 12.7939C129.075 12.4039 129.121 12.0763 129.106 12.0763C128.981 11.9514 127.842 11.9046 127.202 12.0138Z" fill="black"/>
<path d="M161.651 12.0135C157.673 12.4503 154.49 15.009 153.195 18.8003C152.696 20.2825 152.508 22.0767 152.727 23.4185C152.945 24.8382 153.304 25.5559 154.287 26.6013C155.676 28.0678 157.532 28.7075 160.387 28.7075C163.648 28.7075 166.113 27.787 168.064 25.8368C169.717 24.1986 170.622 22.2951 170.981 19.7208C171.512 15.992 169.702 13.168 166.238 12.2631C165.13 11.9667 163.024 11.8575 161.651 12.0135ZM164.038 16.4756C164.928 17.0685 165.224 18.5819 164.818 20.5009C164.569 21.7179 164.007 23.0596 163.508 23.6213C163.149 24.0269 162.088 24.495 161.511 24.495C160.122 24.495 159.42 23.7149 159.311 22.0299C159.186 20.2669 159.919 17.9266 160.887 17.0217C161.745 16.226 163.243 15.9608 164.038 16.4756Z" fill="black"/>
<path d="M183.635 12.0138C182.496 12.1854 181.061 12.9343 179.984 13.886C178.985 14.7753 178.939 14.7441 179.298 13.2151L179.516 12.3258H176.598H173.681L173.166 15.2433C172.261 20.4232 171.918 22.3578 171.653 23.8712C171.512 24.6825 171.263 25.9775 171.122 26.7576C170.982 27.522 170.904 28.2241 170.966 28.2865C171.107 28.4426 176.973 28.3645 177.144 28.2085C177.207 28.1461 177.3 27.7561 177.378 27.3504C177.94 23.8868 178.783 19.4559 178.985 18.9098C179.5 17.4588 180.124 17.0064 181.591 17.0064C183.526 17.0064 183.744 17.7553 182.98 21.999C182.184 26.4611 181.997 27.522 181.981 27.9277L181.965 28.3177H185.086H188.206L188.705 25.5094C189.891 18.8318 190 18.0517 190 16.6475C190 15.3214 189.954 15.0873 189.517 14.2136C188.986 13.1527 188.144 12.4662 187.036 12.1698C186.162 11.9513 184.54 11.8733 183.635 12.0138Z" fill="black"/>
<path d="M80.8962 13.6053C81.0054 14.323 81.2862 15.9144 81.5046 17.1625C81.7075 18.4107 81.9883 20.0177 82.1131 20.751C82.2379 21.4843 82.472 22.8884 82.6436 23.8714C82.8152 24.8543 83.0336 26.118 83.1272 26.6797C83.4393 28.6143 83.0024 28.3959 86.5441 28.3959C90.0857 28.3959 90.4757 28.3491 90.7098 27.881C90.7878 27.6938 91.5679 26.1648 92.4416 24.4954C95.718 18.1299 98.5731 12.5132 98.5731 12.4196C98.5731 12.3728 97.2158 12.3259 95.5776 12.3259H92.5664L91.6771 14.323C89.1496 19.9709 88.2447 21.9367 88.1198 22.0615C88.0574 22.1239 87.9482 21.7027 87.9014 21.1254C87.8546 20.5325 87.6986 19.066 87.5738 17.8646C87.449 16.6633 87.3085 15.2279 87.2617 14.6662C87.2149 14.1046 87.1369 13.3557 87.0901 12.9812L86.9965 12.3259H83.8293H80.6777L80.8962 13.6053Z" fill="black"/>
<path d="M130.494 12.9808C130.323 14.073 129.324 19.8301 129.137 20.7194C129.043 21.1718 128.903 21.9519 128.84 22.4356C128.762 22.9192 128.528 24.3234 128.31 25.556C128.092 26.7729 127.904 27.9118 127.904 28.0835C127.904 28.3799 128.029 28.3955 130.806 28.3955C132.507 28.3955 133.817 28.3331 134.005 28.2395C134.207 28.1303 134.301 27.9118 134.301 27.5686C134.301 27.2878 134.379 26.7885 134.457 26.4453C134.551 26.102 134.676 25.3999 134.754 24.8851C134.925 23.8085 136.361 15.6644 136.719 13.8077C136.844 13.1212 136.953 12.5128 136.953 12.4348C136.953 12.3724 135.518 12.3255 133.771 12.3255H130.603L130.494 12.9808Z" fill="black"/>
<path d="M138.607 12.8248C138.467 13.5113 137.89 16.7409 137.89 16.8813C137.89 16.9437 139.637 17.0217 141.775 17.0373L145.659 17.0841L144.302 18.8783C142.258 21.5931 138.623 26.3829 137.063 28.4267L135.674 30.2677L135.378 31.9371C135.206 32.8732 135.05 33.7782 135.003 33.9654L134.925 34.3242H154.1C166.098 34.3242 173.431 34.2618 173.68 34.1682C173.946 34.0746 174.055 33.9498 173.992 33.7782C173.946 33.6533 173.961 33.5441 174.024 33.5441C174.102 33.5441 174.18 33.1385 174.211 32.6548C174.242 32.1712 174.336 31.6407 174.429 31.4691C174.554 31.235 174.539 31.1882 174.367 31.2974C174.211 31.3911 174.195 31.3755 174.351 31.1882C174.445 31.0634 174.554 30.767 174.585 30.5174C174.617 30.1741 174.554 30.0493 174.32 29.9713C174.148 29.9245 167.034 29.8621 158.5 29.8465C145.129 29.7997 143.023 29.7685 143.085 29.5656C143.132 29.4408 144.006 28.2707 145.004 26.9601C146.018 25.6496 147.828 23.2781 149.029 21.6867C150.231 20.0953 151.588 18.3167 152.056 17.7394C152.977 16.5693 153.086 16.3196 153.414 14.2602C153.538 13.4801 153.679 12.7156 153.741 12.5752C153.835 12.3411 153.211 12.3255 146.268 12.3255H138.717L138.607 12.8248Z" fill="black"/>
</svg>
