<svg width="160" height="52" viewBox="0 0 160 52" fill="none" xmlns="http://www.w3.org/2000/svg">
<path d="M32.5235 17.6052C32.1434 16.178 31.017 15.0529 29.5859 14.6676C26.9965 13.9751 16.608 13.9751 16.608 13.9751C16.608 13.9751 6.22464 13.9751 3.63008 14.6676C2.20288 15.0477 1.07776 16.1741 0.69248 17.6052C0 20.1946 0 25.6001 0 25.6001C0 25.6001 0 31.0055 0.69248 33.5949C1.07264 35.0221 2.19904 36.1473 3.63008 36.5325C6.22464 37.225 16.608 37.225 16.608 37.225C16.608 37.225 26.9965 37.225 29.5859 36.5325C31.0131 36.1524 32.1382 35.026 32.5235 33.5949C33.216 31.0055 33.216 25.6001 33.216 25.6001C33.216 25.6001 33.216 20.1946 32.5235 17.6052Z" fill="#FFEAEA"/>
<path d="M13.2891 30.5833L21.9188 25.6002L13.2891 20.6172V30.5833Z" fill="black"/>
<path d="M48.2125 35.1273C47.5571 34.6831 47.0874 33.997 46.8122 33.0613C46.537 32.1257 46.3949 30.8841 46.3949 29.3301V27.2169C46.3949 25.6476 46.5536 24.3893 46.8711 23.4383C47.1885 22.4873 47.6851 21.7948 48.3559 21.3621C49.0266 20.9282 49.9098 20.7068 51.0029 20.7068C52.0807 20.7068 52.9421 20.9282 53.5923 21.3724C54.2426 21.8165 54.7175 22.509 55.0195 23.4485C55.3203 24.3893 55.4688 25.6463 55.4688 27.2105V29.3237C55.4688 30.8777 55.3203 32.1244 55.0298 33.0652C54.7392 34.006 54.2631 34.6985 53.6026 35.1311C52.9472 35.565 52.0538 35.7865 50.9287 35.7865C49.7767 35.7929 48.8679 35.5714 48.2125 35.1273ZM51.8951 32.845C52.0743 32.3689 52.1703 31.5932 52.1703 30.5205V25.9817C52.1703 24.9359 52.0807 24.1743 51.8951 23.6879C51.7159 23.2066 51.3933 22.9634 50.9338 22.9634C50.4896 22.9634 50.1786 23.2066 49.993 23.6879C49.8138 24.1692 49.7178 24.9346 49.7178 25.9817V30.5205C49.7178 31.5983 49.8023 32.3753 49.9763 32.845C50.1504 33.3212 50.4679 33.558 50.9274 33.558C51.3933 33.558 51.7107 33.3199 51.8951 32.845Z" fill="black"/>
<path d="M98.6598 29.3673V30.102C98.6598 31.0377 98.6867 31.7353 98.7443 32.205C98.7968 32.6697 98.9133 33.014 99.0874 33.2252C99.2614 33.4364 99.5315 33.5478 99.8963 33.5478C100.388 33.5478 100.726 33.357 100.905 32.9769C101.084 32.5967 101.185 31.9618 101.201 31.0748L104.028 31.2386C104.044 31.3654 104.05 31.5394 104.05 31.7622C104.05 33.11 103.68 34.1135 102.945 34.7791C102.211 35.4447 101.17 35.7775 99.8221 35.7775C98.2054 35.7775 97.0739 35.2706 96.425 34.2556C95.7747 33.2406 95.4521 31.6764 95.4521 29.5529V27.0108C95.4521 24.8233 95.7901 23.2322 96.4608 22.2236C97.1315 21.2201 98.2835 20.717 99.9168 20.717C101.042 20.717 101.903 20.9231 102.506 21.3353C103.109 21.7474 103.532 22.3874 103.78 23.2591C104.023 24.1308 104.15 25.3353 104.15 26.8687V29.3634H98.6598V29.3673ZM99.0771 23.2386C98.9133 23.4447 98.8019 23.7826 98.7443 24.2473C98.6867 24.7119 98.6598 25.4262 98.6598 26.3721V27.4178H101.059V26.3721C101.059 25.4364 101.027 24.7286 100.964 24.2473C100.9 23.766 100.785 23.423 100.621 23.2271C100.457 23.0313 100.198 22.9314 99.849 22.9314C99.4995 22.9263 99.241 23.0326 99.0771 23.2386Z" fill="black"/>
<path d="M40.233 29.0933L36.5018 15.6238H39.7568L41.0624 21.7269C41.3952 23.2334 41.6384 24.5122 41.7971 25.5733H41.8918C42.0032 24.813 42.2464 23.5394 42.6266 21.7474L43.9795 15.6174H47.2346L43.4611 29.092V35.5547H40.233V29.0933V29.0933Z" fill="black"/>
<path d="M66.0517 20.9922V35.5496H63.4892L63.2037 33.7691H63.1346C62.437 35.117 61.3912 35.7877 60.0012 35.7877C59.0348 35.7877 58.3205 35.4703 57.861 34.8367C57.4015 34.2031 57.1736 33.2149 57.1736 31.8671V20.9922H60.4492V31.6815C60.4492 32.3317 60.5183 32.7963 60.6604 33.0715C60.8024 33.3467 61.0405 33.4888 61.3733 33.4888C61.6588 33.4888 61.934 33.4043 62.1925 33.2303C62.4511 33.0562 62.6469 32.8335 62.7736 32.5647V20.9922H66.0517Z" fill="black"/>
<path d="M82.8659 20.9922V35.5496H80.3034L80.0179 33.7691H79.9488C79.2512 35.117 78.2055 35.7877 76.8154 35.7877C75.849 35.7877 75.1347 35.4703 74.6752 34.8367C74.2157 34.2031 73.9879 33.2149 73.9879 31.8671V20.9922H77.2634V31.6815C77.2634 32.3317 77.3325 32.7963 77.4746 33.0715C77.6167 33.3467 77.8547 33.4888 78.1875 33.4888C78.473 33.4888 78.7482 33.4043 79.0067 33.2303C79.2653 33.0562 79.4611 32.8335 79.5879 32.5647V20.9922H82.8659Z" fill="black"/>
<path d="M74.9607 18.2606H71.7056V35.5508H68.498V18.2606H65.2429V15.6238H74.9556V18.2606H74.9607Z" fill="black"/>
<path d="M93.714 23.323C93.5131 22.404 93.1956 21.7384 92.7528 21.3262C92.3086 20.9141 91.7006 20.708 90.9249 20.708C90.322 20.708 89.7627 20.8769 89.2392 21.22C88.7156 21.5579 88.315 22.0072 88.0296 22.5627H88.0027V14.8904H84.8423V35.556H87.5483L87.8811 34.1774H87.9502C88.2036 34.6689 88.5838 35.0542 89.092 35.3397C89.5988 35.6251 90.1595 35.7672 90.7777 35.7672C91.8875 35.7672 92.7016 35.2552 93.2238 34.235C93.7473 33.2149 94.0059 31.62 94.0059 29.4478V27.1438C94.0097 25.5157 93.9099 24.2421 93.714 23.323ZM90.7073 29.2622C90.7073 30.3246 90.6651 31.1541 90.5755 31.7569C90.491 32.3598 90.3425 32.7873 90.1364 33.0408C89.9304 33.2942 89.6552 33.4209 89.307 33.4209C89.0369 33.4209 88.7886 33.3569 88.5569 33.2302C88.3291 33.1035 88.1396 32.9128 87.9963 32.6593V24.3893C88.1076 23.9925 88.2971 23.6712 88.5672 23.4165C88.8372 23.163 89.1278 23.0363 89.444 23.0363C89.7768 23.0363 90.0353 23.1681 90.2158 23.4267C90.395 23.6853 90.5217 24.1294 90.596 24.7425C90.6651 25.3608 90.7022 26.2376 90.7022 27.3793V29.2609H90.7073V29.2622Z" fill="black"/>
<path d="M113.02 15.6238H108.548V35.7671H111.455V19.4075L114.66 35.7671H117.343L120.696 19.035V35.7876H123.529V15.6238H118.908L116.038 31.5559L113.02 15.6238Z" fill="black"/>
<path d="M132.1 35.7875H134.41V20.9919H131.279V32.6745C130.757 33.5692 128.895 34.3142 128.895 32.526C128.895 30.7379 128.895 20.9932 128.895 20.9932H125.764C125.764 20.9932 125.764 30.4396 125.764 32.974C125.764 35.5084 129.193 37.7446 131.578 33.943L132.1 35.7875Z" fill="black"/>
<path d="M149.391 20.9922H146.484V35.7877H149.391V20.9922Z" fill="black"/>
<path d="M148.013 19.259C147.008 19.259 146.186 18.4373 146.186 17.4325V16.9857C146.186 15.9809 147.008 15.1592 148.013 15.1592C149.018 15.1592 149.839 15.9809 149.839 16.9857V17.4325C149.838 18.4373 149.018 19.259 148.013 19.259Z" fill="black"/>
<path d="M141.789 25.7064H144.324C144.398 24.4763 144.472 20.7502 140.522 20.7502C137.243 20.7502 136.348 22.8366 136.348 24.7003C136.348 26.564 137.293 27.8798 139.976 29.9675C142.262 31.1605 142.36 33.8933 140.472 33.8933C139.578 33.8933 139.031 33.2968 139.031 32.452C139.031 31.6072 139.031 31.1106 139.031 31.1106H136.348C136.348 31.1106 136.348 32.2536 136.348 32.6504C136.348 33.9918 137.243 36.0296 140.372 36.0296C143.503 36.0296 144.596 34.2901 144.596 31.6072C144.596 28.9243 138.932 26.2901 138.932 24.452C138.932 22.3157 141.752 22.5512 141.752 24.1038L141.789 25.7064Z" fill="black"/>
<path d="M154.733 24.5005C154.434 27.8797 154.683 30.4628 154.783 32.1025C154.918 34.3348 157.267 34.3386 157.267 32.0525C157.267 30.5127 157.267 30.4129 157.267 30.4129H160C160 33.394 158.957 35.8285 156.024 35.8285C152.595 35.8285 151.602 33.394 151.602 30.8097C151.602 28.2253 151.602 26.4871 151.602 26.4871C151.602 23.0093 153.093 20.6733 155.924 20.6733C159.7 20.6733 159.8 23.3562 159.8 24.5991C159.8 25.8407 159.8 26.2388 159.8 26.2388L157.266 26.4372C157.266 26.4372 157.266 25.8407 157.266 24.4493C157.267 23.0593 155.528 21.8177 154.733 24.5005Z" fill="black"/>
</svg>
