<svg width="120" height="50" viewBox="0 0 120 50" fill="none" xmlns="http://www.w3.org/2000/svg">
<path fill-rule="evenodd" clip-rule="evenodd" d="M51.8037 49.8826C49.3976 49.8956 47.9671 49.2824 47.9671 48.1872V45.964L50.0012 45.9558L50.01 48.1483C50.01 48.7546 50.6478 49.0769 51.8037 49.0769C52.9918 49.068 53.6002 48.7457 53.6002 48.1346V45.951H55.6424V48.1606C55.6424 49.253 54.2229 49.8696 51.8037 49.8826ZM113.316 49.7214C112.308 49.729 111.361 49.6081 110.494 49.3561V48.4992C111.513 48.7928 112.358 48.9745 113.26 48.9745C114.062 48.9745 114.486 48.8461 114.486 48.6344C114.486 48.405 114.101 48.3238 113.387 48.2125C111.336 47.8916 110.353 47.5577 110.353 46.8551C110.353 46.2214 111.562 45.7312 113.43 45.7312C114.353 45.7204 115.274 45.8246 116.171 46.0412V46.8421C115.136 46.5895 114.265 46.4529 113.532 46.4529C112.745 46.4529 112.336 46.5594 112.336 46.7567C112.336 46.9274 112.691 47.0647 113.438 47.189C114.152 47.3214 114.846 47.4354 115.463 47.5959C116.16 47.8205 116.533 48.149 116.533 48.5805C116.533 49.2722 115.359 49.7214 113.316 49.7214ZM106.02 2.15244L90.8794 2.18453L90.9129 12.7453C87.4948 5.79993 79.0691 2.45628 74.9901 1.29143C70.8558 0.109515 61.7118 -1.49642 55.1494 2.86938C49.9131 1.39454 37.0438 -0.709837 31.0406 8.90051C29.3193 5.4879 24.9712 2.03637 16.8016 2.05617C5.18929 2.03705 -0.0170281 9.51775 4.18328e-05 17.4218C4.18328e-05 27.5914 7.5702 32.584 15.8552 32.584C22.126 32.558 24.7705 29.9286 26.5704 28.1519L27.3003 31.7748L32.0832 31.7639V28.9651C36.1343 33.5187 42.289 35.8976 45.5821 36.835C49.7096 37.9999 58.8666 39.6092 65.4351 35.253C71.0961 36.863 85.8473 39.205 90.9436 26.3876V32.4337L105.801 32.4078C117.117 32.3737 120 23.0289 120 16.5267C119.983 10.7973 117.567 2.12308 106.02 2.15244ZM17.6776 16.1716L17.6906 21.0611L25.6916 21.0522C24.2311 26.8976 18.9367 27.437 17.3629 27.437C12.4754 27.4541 7.36263 25.4112 7.32849 17.4983C7.32849 10.0736 12.0814 7.05969 17.1812 7.05082C22.2722 7.0358 24.7125 10.671 24.7125 11.8038L29.6067 11.7867C29.3712 12.4032 29.1274 13.0581 28.941 13.7559C28.6993 14.5739 28.5429 15.3789 28.3948 16.1538L17.6776 16.1716ZM62.5148 23.3007C62.1597 24.5597 61.7118 25.6324 61.1826 26.5637C58.3401 24.1699 56.4713 20.4104 58.0445 14.8231C58.4084 13.5859 58.8673 12.5043 59.406 11.573C62.2492 13.9641 64.1057 17.7215 62.5148 23.3007ZM47.1962 31.1282C42.1688 29.6903 35.7144 25.4467 38.2769 16.399C40.3389 9.11968 45.7767 7.57861 50.4375 7.99785C49.7608 9.21391 49.1791 10.5925 48.7291 12.1793C46.0894 21.4769 50.7611 27.422 56.1115 31.0231C53.1434 32.1552 49.8148 31.8684 47.1962 31.1282ZM82.2926 21.7207C80.236 28.9979 74.8099 30.5622 70.1252 30.1368C70.8148 28.9187 71.4041 27.5313 71.8547 25.9465C74.4848 16.655 69.8248 10.7072 64.4867 7.1191C67.4445 5.9761 70.765 6.26287 73.3774 7.0078C78.4068 8.42597 84.8504 12.6928 82.2926 21.7207ZM104.917 27.1892L97.9464 27.1953L97.9027 7.38743L104.768 7.38539C107.846 7.38129 112.672 8.08594 112.691 17.0196C112.701 21.9822 110.752 27.1755 104.917 27.1892Z" fill="black"/>
<path fill-rule="evenodd" clip-rule="evenodd" d="M90.9955 26.8593L30.0219 26.9788L30.0048 16.7792L90.9573 16.657L90.9955 26.8593V26.8593Z" fill="black"/>
<path fill-rule="evenodd" clip-rule="evenodd" d="M46.0805 24.5447H43.7303L43.7146 20.1966H43.6873L41.4457 24.5597H38.9713L36.7788 20.2048H36.7249V24.5658H34.3767L34.3638 19.3527L38.0672 19.3486L40.2488 23.4467H40.2727L42.4283 19.3356H46.0805V24.5447ZM58.1831 22.697C58.196 24.0462 56.261 24.6437 53.2123 24.6587C52.1198 24.6587 50.4613 24.5597 49.3716 24.0415C48.7291 23.7205 48.4765 23.2965 48.4423 22.7742L48.428 19.3356L51.0117 19.3165L51.0205 22.697C51.0205 23.4167 51.9949 23.7458 53.1638 23.7458C54.9002 23.7458 55.6021 23.3607 55.6021 22.7394L55.598 19.3158L58.1838 19.3049L58.1831 22.697ZM62.4533 22.9196C62.4758 23.1852 62.8104 23.7328 65.0179 23.7328C66.2073 23.7199 67.5292 23.6045 67.5292 23.061C67.5292 22.654 66.6279 22.5489 65.3436 22.4185L64.0674 22.2942C62.0907 22.1016 60.2205 21.9132 60.2205 20.7593C60.2205 20.1919 60.9375 19.1602 64.8506 19.1492C68.5568 19.1492 69.5462 20.1919 69.5755 20.8316L67.1379 20.8364C67.0806 20.5988 66.8751 20.0444 64.6771 20.0546C63.7103 20.0546 62.5605 20.2171 62.5605 20.6903C62.5605 21.087 63.3354 21.1703 63.8407 21.2318L66.7877 21.5226C68.4387 21.707 69.9627 21.9808 69.9627 22.9251C69.9627 24.4819 66.2592 24.6273 65.1886 24.6273C60.7995 24.6403 60.0253 23.5553 60.0253 22.9189L62.4533 22.9196ZM74.1871 24.4825H71.6765L71.671 19.2844L74.1871 19.2796V24.4825ZM84.2413 20.9545C84.0549 20.6548 83.6636 20.0635 81.5756 20.0635C80.3664 20.0635 78.5802 20.4104 78.5802 21.8872C78.5802 22.8254 79.4508 23.6687 81.5756 23.6687C82.9522 23.6687 83.9374 23.3088 84.2413 22.6711H86.7642C86.2828 23.8059 84.5677 24.5911 81.5217 24.6C78.3187 24.6109 76.0191 23.6816 75.9911 21.8872C75.9911 20.0635 78.4314 19.1212 81.5497 19.113C85.161 19.113 86.6283 20.1789 86.7642 20.9545H84.2413Z" fill="white"/>
<path fill-rule="evenodd" clip-rule="evenodd" d="M8.69617 47.238C8.69617 47.5228 8.33224 47.6703 7.57024 47.6812H6.60271V46.799H7.57024C8.31926 46.7997 8.68114 46.9485 8.69617 47.238ZM10.7855 47.2141C10.7855 46.4269 9.70875 46.0711 7.54634 46.0711L4.54887 46.08L4.55774 49.9419H6.60203V48.4364H7.39681C9.64867 48.4364 10.7855 48.0267 10.7855 47.2141V47.2141ZM18.4977 47.1807C18.4977 47.4818 18.1228 47.6341 17.3629 47.6341H16.3885V46.7355H17.3629C18.0887 46.7355 18.4977 46.8932 18.4977 47.1807V47.1807ZM21.4481 49.8955L20.1398 48.5934C19.9043 48.3387 19.5874 48.1612 19.1764 48.0963C20.1548 47.8956 20.6069 47.5699 20.6069 47.1677C20.6069 46.3805 19.526 46.0438 17.3526 46.0438H14.349V49.9167H16.3995L16.3885 48.3517L16.6159 48.3387C17.4319 48.3387 17.7808 48.448 18.0976 48.8085L19.1341 49.9167L21.4481 49.8955V49.8955ZM30.7757 47.9468C30.7757 48.6344 29.8041 49.1417 28.4556 49.1417C27.1064 49.1417 26.1669 48.6487 26.1539 47.9598C26.1539 47.266 27.12 46.7485 28.4556 46.7485C29.8034 46.7478 30.7757 47.2558 30.7757 47.9468ZM32.8992 47.9468C32.8992 47.3644 32.4479 46.8844 31.606 46.4993C30.7948 46.1265 29.742 45.951 28.4549 45.951C27.1808 45.9558 26.1532 46.1394 25.3181 46.5143C24.5029 46.8932 24.0488 47.3821 24.0488 47.9591C24.0488 48.5333 24.5029 49.0379 25.3352 49.4066C26.1662 49.7596 27.1808 49.9412 28.4549 49.9412C29.7413 49.9412 30.814 49.7446 31.606 49.3929C32.4479 49.0174 32.8992 48.5251 32.8992 47.9468ZM42.343 47.8956C42.343 48.5927 41.3864 49.0686 40.001 49.0686H38.5002L38.4852 46.7949L40.001 46.7737C41.3857 46.7737 42.343 47.2401 42.343 47.8956V47.8956ZM44.4514 47.8956C44.4514 47.266 43.8758 46.7478 42.8503 46.3798C41.8336 46.0199 40.808 45.981 39.5101 45.981L36.4463 46.0029L36.46 49.8689H39.5107C40.6626 49.8429 41.6151 49.8299 42.5335 49.552C43.7748 49.1717 44.4514 48.5934 44.4514 47.8956ZM63.5827 49.8695C62.2888 49.8695 61.2127 49.6681 60.4343 49.326C59.6286 48.9573 59.1595 48.448 59.1595 47.8696C59.1595 46.7034 60.9382 45.8636 63.767 45.8636C64.7776 45.8445 65.7157 45.9558 66.6102 46.1736V47.0646C65.7304 46.7985 64.8166 46.6615 63.8975 46.6577C62.256 46.6577 61.2544 47.1308 61.2544 47.8689C61.2544 48.5927 62.2308 49.0379 63.7418 49.0379C64.7366 49.0379 65.7157 48.8802 66.6983 48.5395V49.4585C65.7151 49.7214 64.7271 49.8695 63.5827 49.8695ZM74.3818 46.6126V49.7603H72.2392V46.6126L69.5449 46.6256V45.9045L77.0624 45.8827V46.6126H74.3818ZM80.3938 49.7289V45.8697H82.4852V49.7289H80.3938ZM94.9367 47.772C94.9367 47.1889 94.4847 46.7041 93.6673 46.3395C92.8446 45.9639 91.7965 45.7803 90.519 45.7803C89.2094 45.7939 88.1866 45.9817 87.3768 46.3409C86.5369 46.7355 86.1102 47.2141 86.1102 47.7973C86.1102 48.3879 86.541 48.8679 87.3768 49.2352C88.1866 49.608 89.2333 49.7965 90.519 49.7794C91.8149 49.7794 92.8446 49.5916 93.6673 49.2352C94.4847 48.8508 94.9367 48.351 94.9367 47.772ZM92.8282 47.772C92.8282 48.4616 91.8573 48.9703 90.5183 48.9703C89.1752 48.9751 88.1859 48.48 88.1859 47.7973C88.1859 47.1124 89.1752 46.5935 90.5183 46.5935C91.8573 46.5935 92.8282 47.0824 92.8282 47.772ZM105.063 49.6681L100.507 47.2558L100.522 49.6831L98.5159 49.6872V45.8274L100.283 45.8165L104.654 48.1352V45.8117H106.649V49.6681H105.063V49.6681Z" fill="black"/>
</svg>
