<svg width="12" height="12" viewBox="0 0 12 12" fill="none" xmlns="http://www.w3.org/2000/svg">
<path d="M2.5 2.5003C2.49995 2.32434 2.54632 2.15149 2.63444 1.99919C2.72256 1.84689 2.8493 1.72054 3.00188 1.63289C3.15445 1.54525 3.32744 1.49941 3.50339 1.50001C3.67935 1.5006 3.85203 1.54762 4.004 1.6363L10.0025 5.1353C10.1539 5.22314 10.2796 5.34917 10.367 5.5008C10.4544 5.65243 10.5005 5.82434 10.5006 5.99937C10.5008 6.17439 10.455 6.34638 10.3678 6.49816C10.2807 6.64994 10.1552 6.77619 10.004 6.8643L4.004 10.3643C3.85203 10.453 3.67935 10.5 3.50339 10.5006C3.32744 10.5012 3.15445 10.4553 3.00188 10.3677C2.8493 10.2801 2.72256 10.1537 2.63444 10.0014C2.54632 9.8491 2.49995 9.67625 2.5 9.5003V2.5003Z" stroke="#BDCAEE" stroke-linecap="round" stroke-linejoin="round"/>
</svg>
