<svg width="326" height="128" viewBox="0 0 326 128" fill="none" xmlns="http://www.w3.org/2000/svg">
<path d="M40.6349 65.3298C40.4972 59.0958 41.3561 53.4083 43.6771 48.0731C45.8227 42.8733 49.0253 38.2813 53.0394 34.6489C58.1425 30.0771 64.2195 26.9996 70.7021 25.7042C73.5 25.1609 76.3538 25.052 79.1794 25.3806C86.7391 26.2463 93.9002 29.5293 99.7727 34.8214C103.232 37.9649 106.034 41.8887 107.988 46.3259C109.264 49.0359 110.279 51.8842 111.017 54.8248C111.776 58.3243 112.083 61.9235 111.928 65.5167C111.901 68.8581 111.5 72.1832 110.735 75.4177C110.016 78.0582 109.012 80.5952 107.745 82.9747C107.214 84.0388 106.539 85.0167 106.034 86.1096C105.417 87.1822 104.715 88.1928 103.936 89.1296C100.527 94.1697 96.0396 98.2121 90.8692 100.9C84.8138 104.086 78.0286 105.215 71.3839 104.143C67.1552 103.407 63.0768 101.864 59.3335 99.5842C51.4263 95.1369 45.3765 87.5318 42.4314 78.337C41.0337 74.1799 40.4225 69.7543 40.6349 65.3298ZM62.3297 66.7678C62.2445 71.0388 62.369 75.3027 62.6378 79.5593C62.7272 81.149 63.2865 82.6636 64.231 83.8735C66.0865 86.3182 70.1907 86.6705 72.4723 85.218C77.1994 82.2125 81.9789 79.3004 86.3847 75.7197C88.1877 74.2816 90.2202 73.1456 91.774 71.2977C92.8835 70.0201 93.526 68.3398 93.5792 66.5764C93.6324 64.8131 93.0926 63.0898 92.0625 61.7346C90.6332 59.7932 88.7516 58.5421 86.8568 57.2407C82.0969 53.9835 77.5469 50.3596 72.7018 47.2318C71.4576 46.3862 70.0781 45.8079 68.6369 45.5278C66.0865 45.082 62.4149 48.6268 62.3887 51.999C62.3625 56.8524 62.4018 61.7921 62.3231 66.7319L62.3297 66.7678Z" fill="#BDCAEE"/>
<path d="M18.6855 47.8791C18.9036 46.1275 19.3267 44.4141 19.9444 42.7812C22.6849 34.8719 26.8809 27.9764 31.9358 21.6634C38.8855 12.9847 47.5988 7.21091 57.4201 3.34255C63.2398 1.14029 69.3525 0.0128643 75.5089 0.00626303C80.3067 -0.0649084 85.096 0.470707 89.782 1.6025C96.1777 3.2248 102.284 5.99957 107.851 9.81379C117.574 16.2131 124.793 25.1434 129.939 36.1661C131.447 39.3946 132.975 42.6374 133.84 46.1318C134.145 47.0713 134.255 48.0736 134.162 49.0655C133.67 52.1141 130.352 52.7181 128.425 51.4095C127.54 50.8286 126.833 49.9728 126.392 48.9504C126.117 48.3105 125.861 47.6634 125.632 47.0019C123.009 39.3802 118.853 32.8298 113.83 26.9338C108.386 20.5915 101.733 15.6445 94.3451 12.4454C90.947 11.0488 87.4142 10.0838 83.8157 9.56932C81.3596 9.09889 78.8738 8.83925 76.3809 8.79277C71.1692 8.7339 65.9827 9.5933 61.0195 11.3381C55.9881 13.2309 51.2268 15.8962 46.8776 19.2546C41.4435 23.4367 36.7733 28.7 33.1094 34.7712C30.757 38.3673 28.8129 42.2644 27.3202 46.3763C26.9823 47.6733 26.4814 48.9123 25.8319 50.0577C25.3585 50.7816 24.7069 51.3425 23.9533 51.6748C23.1997 52.0072 22.3754 52.0972 21.5769 51.9344C20.1148 51.7331 19.3346 50.5611 18.8626 49.1086C18.7458 48.7113 18.6861 48.2965 18.6855 47.8791Z" fill="#BDCAEE"/>
<path d="M75.5992 128C64.148 127.834 52.9771 124.093 43.3947 117.215C38.8963 114.125 34.8025 110.378 31.2262 106.077C26.3221 100.015 22.172 93.4005 19.4249 85.8291C19.1987 85.1012 19.0212 84.3563 18.8938 83.6001C18.6817 82.802 18.7114 81.95 18.9786 81.172C19.2458 80.394 19.736 79.7322 20.3756 79.2859C20.9895 78.7809 21.7273 78.489 22.4939 78.448C23.2604 78.407 24.0206 78.6187 24.6765 79.0559C25.8388 79.7746 26.717 80.9401 27.1417 82.3274C29.3498 88.3184 32.4764 93.8509 36.386 98.6853C41.3335 104.879 47.3498 109.937 54.088 113.569C58.0471 115.631 62.2348 117.118 66.545 117.991C69.9537 118.783 73.4333 119.147 76.917 119.077C84.8501 118.832 92.4685 117.028 99.5493 112.965C108.76 107.751 116.487 99.8615 121.887 90.1576C123.342 87.5991 124.62 84.9239 125.709 82.1549C126.417 80.3285 127.525 78.9983 129.361 78.6316C129.919 78.532 130.491 78.5783 131.03 78.7669C131.569 78.9554 132.06 79.2809 132.462 79.7168C132.865 80.1527 133.168 80.6866 133.347 81.2752C133.525 81.8638 133.575 82.4904 133.491 83.104C133.239 84.9513 132.631 86.7185 131.708 88.2882C131.286 89.017 130.909 89.7761 130.58 90.5603C130.209 91.6441 129.645 92.6364 128.922 93.4795C128.813 93.5899 128.728 93.7249 128.672 93.875C127.99 95.7828 127.039 97.5613 125.853 99.1455C124.594 100.886 123.513 102.741 122.142 104.438C120.87 105.983 119.612 107.537 118.294 109.032C112.151 116.05 104.703 120.831 96.4482 124.132C91.8455 125.949 87.0522 127.124 82.1817 127.626C79.9854 127.899 77.8021 127.921 75.5992 128Z" fill="#BDCAEE"/>
<path d="M36.1445 65.157C36.1445 70.1254 36.1445 75.1011 36.1445 80.0696C36.2001 80.9403 35.9464 81.8009 35.4364 82.4711C35.2198 82.7866 34.9403 83.0436 34.6192 83.2223C34.2981 83.4011 33.944 83.4969 33.584 83.5024C33.2239 83.508 32.8675 83.4231 32.542 83.2543C32.2164 83.0856 31.9304 82.8373 31.7058 82.5286C31.0378 81.7446 30.6472 80.7246 30.6044 79.6525C30.1913 70.1614 30.3356 60.6702 30.3421 51.1719C30.3421 49.59 30.4667 48.0369 32.0664 47.1813C34.0858 46.1027 36.151 47.3754 36.1117 49.8417C36.033 54.9612 35.7642 60.0375 36.1445 65.157Z" fill="#7C94DE"/>
<path d="M122.067 65.0711C122.067 69.8167 122.067 74.5623 122.067 79.3079C122.094 80.5657 121.754 81.8001 121.097 82.8311C120.957 83.0559 120.775 83.2444 120.562 83.3835C120.349 83.5227 120.111 83.609 119.864 83.6364C119.416 83.7326 118.953 83.7127 118.513 83.5783C118.072 83.444 117.667 83.1988 117.328 82.8623C116.989 82.5258 116.727 82.1072 116.562 81.64C116.397 81.1727 116.333 80.6696 116.376 80.1707C116.75 73.8289 116.56 67.4799 116.566 61.1309C116.566 57.924 116.619 54.7171 116.376 51.5175C116.302 50.7495 116.364 49.9729 116.56 49.231C116.706 48.5202 117.076 47.8888 117.605 47.4482C118.134 47.0075 118.788 46.7858 119.451 46.8222C120.125 46.9051 120.751 47.2425 121.222 47.7765C121.693 48.3105 121.981 49.0078 122.034 49.7487C122.051 50.0696 122.051 50.3913 122.034 50.7122C122.034 55.5057 122.034 60.2848 122.034 65.0496L122.067 65.0711Z" fill="#7C94DE"/>
<path d="M15.5975 65.1356C15.5975 67.6378 15.5975 70.1688 15.5975 72.6351C15.5079 73.4915 15.1507 74.2875 14.5865 74.8878C14.0224 75.4881 13.2862 75.8558 12.5029 75.9282C11.1916 75.9282 9.97217 74.4111 9.9525 72.7933C9.9525 71.7075 10.0115 70.6362 10.0508 69.5289C10.2016 65.4879 9.76237 61.4614 9.72959 57.4276C9.69212 57.0131 9.7372 56.5946 9.86172 56.201C9.98624 55.8075 10.1872 55.4483 10.4508 55.1483C10.8365 54.6559 11.3528 54.308 11.9277 54.1533C12.5025 53.9986 13.1071 54.0448 13.6568 54.2855C14.2328 54.4969 14.7313 54.9062 15.0785 55.4528C15.4257 55.9993 15.6031 56.654 15.5844 57.3198C15.5844 59.9155 15.5844 62.5112 15.5844 65.1069L15.5975 65.1356Z" fill="#BDCAEE"/>
<path d="M141.906 65.4955C141.768 67.7604 142.149 70.3849 141.906 73.0093C141.856 73.7645 141.542 74.4695 141.031 74.9782C140.52 75.4869 139.849 75.7603 139.159 75.7416C138.479 75.6897 137.839 75.37 137.357 74.8414C136.875 74.3129 136.584 73.6112 136.537 72.8655C136.497 72.2615 136.537 71.6504 136.537 71.0392C136.497 66.6819 136.609 62.3246 136.392 57.9673C136.268 55.4795 137.704 53.9407 139.762 54.1852C140.304 54.2347 140.812 54.4942 141.195 54.9171C141.579 55.34 141.812 55.8988 141.854 56.4933C142.221 59.3694 141.873 62.2527 141.906 65.4955Z" fill="#BDCAEE"/>
<path d="M126.577 64.7688C126.577 63.1006 126.577 61.4325 126.577 59.7356C126.561 58.911 126.818 58.108 127.3 57.4749C127.782 56.8419 128.457 56.4215 129.199 56.2915C130.557 56.1692 131.933 57.5066 132.215 59.1676C132.308 60.0268 132.319 60.8943 132.248 61.7561C132.182 64.6322 132.169 67.5083 132.11 70.3844C132.078 72.0166 131.094 73.0448 129.488 73.2605C128.855 73.3241 128.223 73.122 127.721 72.695C127.218 72.268 126.882 71.6478 126.78 70.9596C126.688 70.4577 126.642 69.9471 126.642 69.4353C126.642 68.6371 126.642 67.8318 126.642 67.0337C126.642 66.2356 126.642 65.495 126.642 64.7256L126.577 64.7688Z" fill="#9DAFE6"/>
<path d="M25.5952 65.2287C25.5952 67.1198 25.523 69.018 25.5952 70.9018C25.6673 72.4118 23.9167 73.4256 22.7038 73.5622C22.1404 73.5533 21.5963 73.3351 21.1605 72.9434C20.7246 72.5516 20.4228 72.0093 20.3042 71.4052C20.1965 70.9051 20.135 70.3944 20.1206 69.8808C20.0813 66.6093 20.0485 63.3377 20.0551 60.0589C19.9994 59.3445 20.1735 58.6313 20.5471 58.0429C20.9208 57.4546 21.4704 57.0282 22.1006 56.8377C22.4776 56.6769 22.8841 56.6173 23.2863 56.6638C23.6886 56.7103 24.0748 56.8615 24.4129 57.105C24.751 57.3484 25.0311 57.677 25.2299 58.0632C25.4287 58.4495 25.5405 58.8823 25.5558 59.3255C25.6214 61.2813 25.5558 63.237 25.5558 65.1928L25.5952 65.2287Z" fill="#9DAFE6"/>
<path d="M6.40568 65.2288C6.40568 66.6668 4.9174 69.1331 3.78316 69.6364C3.53776 69.7442 3.26967 69.7741 3.00952 69.7227C1.56713 69.471 0.190311 68.033 0.0526292 66.6165C-0.209622 63.9058 0.505013 62.3023 2.26866 61.5833C4.0323 60.8643 6.14998 62.4533 6.38601 64.8549C6.39912 64.9843 6.39912 65.1425 6.40568 65.2288Z" fill="#D8DFF5"/>
<path d="M145.67 65.1789C145.67 63.7409 145.84 62.4538 147.119 61.706C147.529 61.4692 147.98 61.3305 148.443 61.299C148.906 61.2675 149.369 61.344 149.803 61.5234C150.236 61.7028 150.631 61.981 150.959 62.3397C151.287 62.6984 151.543 63.1294 151.708 63.6043C152.003 64.4148 152.077 65.302 151.919 66.1574C151.762 67.0129 151.381 67.7997 150.823 68.4218C149.991 69.2846 149.007 69.8239 147.866 69.3924C147.323 69.1828 146.842 68.8128 146.478 68.3231C146.114 67.8335 145.879 67.2431 145.801 66.617C145.732 66.1409 145.688 65.6607 145.67 65.1789Z" fill="#D8DFF5"/>
<path d="M67.924 66.4012C67.7929 62.842 67.9699 59.2828 67.7535 55.7308C67.716 54.9293 67.7644 54.1256 67.8978 53.3365C68.1338 51.7906 69.15 51.1794 70.4875 51.8049C72.1594 52.5599 73.5296 53.8326 74.9786 54.9687C78.3955 57.7144 81.9694 60.2169 85.6784 62.4609C86.5194 62.8674 87.2119 63.5711 87.6453 64.4598C87.9008 64.9883 88.0113 65.5865 87.9636 66.1823C87.9159 66.7782 87.712 67.3461 87.3765 67.8177C87.0159 68.3426 86.4587 68.7236 86.3538 69.4642C86.3144 69.7734 86.0063 69.8022 85.7768 69.7734C85.0707 69.7612 84.3858 70.0381 83.8558 70.55C82.4528 71.5854 81.0759 72.6711 79.7581 73.8431C78.8599 74.6484 77.6404 74.8713 76.7029 75.6838C75.6277 76.6114 74.4737 77.4311 73.4247 78.4233C72.4632 79.2538 71.3424 79.834 70.1466 80.1202C69.3664 80.3503 68.8681 79.811 68.5403 79.1064C68.1689 78.2637 67.9782 77.3389 67.983 76.4029C67.8912 73.0666 67.924 69.7375 67.924 66.4012Z" fill="#7C94DE"/>
<path d="M174.793 49.9091L182.364 72.8068H182.662L190.219 49.9091H196.014L185.759 79H179.253L169.011 49.9091H174.793ZM314.59 79.4261C312.403 79.4261 310.513 78.9716 308.923 78.0625C307.341 77.1439 306.124 75.8466 305.272 74.1705C304.42 72.4848 303.994 70.5009 303.994 68.2188C303.994 65.9744 304.42 64.0047 305.272 62.3097C306.134 60.6051 307.336 59.2794 308.88 58.3324C310.424 57.3759 312.237 56.8977 314.32 56.8977C315.665 56.8977 316.934 57.1155 318.127 57.5511C319.33 57.9773 320.39 58.6402 321.309 59.5398C322.237 60.4394 322.966 61.5852 323.496 62.9773C324.027 64.3598 324.292 66.0076 324.292 67.9205V69.4972H306.408V66.0312H319.363C319.353 65.0464 319.14 64.1705 318.724 63.4034C318.307 62.6269 317.725 62.0161 316.977 61.571C316.238 61.1259 315.376 60.9034 314.391 60.9034C313.34 60.9034 312.417 61.1591 311.621 61.6705C310.826 62.1723 310.206 62.8352 309.761 63.6591C309.325 64.4735 309.103 65.3684 309.093 66.3438V69.3693C309.093 70.6383 309.325 71.7273 309.789 72.6364C310.253 73.536 310.902 74.2273 311.735 74.7102C312.568 75.1837 313.544 75.4205 314.661 75.4205C315.409 75.4205 316.086 75.3163 316.692 75.108C317.299 74.8902 317.824 74.5729 318.269 74.1562C318.714 73.7396 319.05 73.2235 319.278 72.608L324.079 73.1477C323.776 74.4167 323.198 75.5246 322.346 76.4716C321.503 77.4091 320.424 78.1383 319.107 78.6591C317.791 79.1705 316.285 79.4261 314.59 79.4261Z" fill="#D8DFF5"/>
<path d="M199.619 79V57.1818H204.761V79H199.619ZM202.204 54.0852C201.389 54.0852 200.689 53.8153 200.102 53.2756C199.514 52.7263 199.221 52.0682 199.221 51.3011C199.221 50.5246 199.514 49.8665 200.102 49.3267C200.689 48.7775 201.389 48.5028 202.204 48.5028C203.028 48.5028 203.728 48.7775 204.306 49.3267C204.893 49.8665 205.187 50.5246 205.187 51.3011C205.187 52.0682 204.893 52.7263 204.306 53.2756C203.728 53.8153 203.028 54.0852 202.204 54.0852ZM285.698 66.2159V79H280.556V57.1818H285.471V60.8892H285.727C286.228 59.6676 287.029 58.697 288.127 57.9773C289.235 57.2576 290.603 56.8977 292.232 56.8977C293.738 56.8977 295.049 57.2197 296.167 57.8636C297.294 58.5076 298.165 59.4403 298.781 60.6619C299.406 61.8835 299.713 63.3655 299.704 65.108V79H294.562V65.9034C294.562 64.4451 294.183 63.304 293.425 62.4801C292.677 61.6562 291.64 61.2443 290.315 61.2443C289.415 61.2443 288.615 61.4432 287.914 61.8409C287.223 62.2292 286.678 62.7926 286.281 63.5312C285.892 64.2699 285.698 65.1648 285.698 66.2159Z" fill="#BDCAEE"/>
<path d="M219.565 79.4261C217.435 79.4261 215.588 78.9574 214.026 78.0199C212.463 77.0824 211.251 75.7708 210.389 74.0852C209.537 72.3996 209.111 70.4299 209.111 68.1761C209.111 65.9223 209.537 63.9479 210.389 62.2528C211.251 60.5578 212.463 59.2415 214.026 58.304C215.588 57.3665 217.435 56.8977 219.565 56.8977C221.696 56.8977 223.543 57.3665 225.105 58.304C226.668 59.2415 227.875 60.5578 228.727 62.2528C229.589 63.9479 230.02 65.9223 230.02 68.1761C230.02 70.4299 229.589 72.3996 228.727 74.0852C227.875 75.7708 226.668 77.0824 225.105 78.0199C223.543 78.9574 221.696 79.4261 219.565 79.4261ZM219.594 75.3068C220.749 75.3068 221.715 74.9896 222.491 74.3551C223.268 73.7112 223.846 72.8494 224.224 71.7699C224.613 70.6903 224.807 69.4877 224.807 68.1619C224.807 66.8267 224.613 65.6193 224.224 64.5398C223.846 63.4508 223.268 62.5843 222.491 61.9403C221.715 61.2964 220.749 60.9744 219.594 60.9744C218.41 60.9744 217.425 61.2964 216.639 61.9403C215.863 62.5843 215.28 63.4508 214.892 64.5398C214.513 65.6193 214.324 66.8267 214.324 68.1619C214.324 69.4877 214.513 70.6903 214.892 71.7699C215.28 72.8494 215.863 73.7112 216.639 74.3551C217.425 74.9896 218.41 75.3068 219.594 75.3068ZM270.126 69.8239V57.1818H275.268V79H270.283V75.1222H270.055C269.563 76.3437 268.753 77.3428 267.626 78.1193C266.509 78.8958 265.131 79.2841 263.493 79.2841C262.063 79.2841 260.799 78.9669 259.7 78.3324C258.611 77.6884 257.759 76.7557 257.143 75.5341C256.528 74.303 256.22 72.8163 256.22 71.0739V57.1818H261.362V70.2784C261.362 71.661 261.741 72.7595 262.499 73.5739C263.256 74.3883 264.25 74.7955 265.482 74.7955C266.239 74.7955 266.973 74.6108 267.683 74.2415C268.393 73.8722 268.976 73.3229 269.43 72.5938C269.894 71.8551 270.126 70.9318 270.126 69.8239Z" fill="#9DAFE6"/>
<path d="M231.732 54.3267V49.9091H254.942V54.3267H245.95V79H240.723V54.3267H231.732Z" fill="#7C94DE"/>
</svg>
