<svg width="56" height="64" viewBox="0 0 56 64" fill="none" xmlns="http://www.w3.org/2000/svg">
<path d="M14.9703 22.4564C14.9195 20.3134 15.236 18.3584 16.091 16.5244C16.8815 14.737 18.0614 13.1585 19.5403 11.9098C21.4204 10.3383 23.6593 9.28038 26.0476 8.83508C27.0784 8.64832 28.1298 8.61088 29.1708 8.72385C31.956 9.02144 34.5943 10.1499 36.7578 11.9691C38.0325 13.0497 39.0648 14.3985 39.7844 15.9238C40.2545 16.8553 40.6285 17.8344 40.9004 18.8453C41.18 20.0482 41.2931 21.2855 41.2361 22.5206C41.226 23.6692 41.0784 24.8122 40.7965 25.9241C40.5317 26.8318 40.1619 27.7038 39.6951 28.5218C39.4994 28.8876 39.2506 29.2238 39.0646 29.5994C38.8374 29.9682 38.5788 30.3155 38.2917 30.6375C37.0358 32.3701 35.3825 33.7597 33.4776 34.6836C31.2467 35.7788 28.7469 36.1669 26.2988 35.7984C24.7409 35.5452 23.2383 35.0149 21.8592 34.2313C18.946 32.7026 16.7171 30.0883 15.6321 26.9276C15.1172 25.4986 14.892 23.9773 14.9703 22.4564ZM22.9631 22.9507C22.9317 24.4189 22.9776 25.8846 23.0766 27.3478C23.1095 27.8942 23.3156 28.4149 23.6635 28.8308C24.3471 29.6711 25.8592 29.7922 26.6998 29.293C28.4414 28.2598 30.2022 27.2588 31.8254 26.0279C32.4897 25.5336 33.2385 25.1431 33.811 24.5078C34.2197 24.0687 34.4564 23.4911 34.476 22.8849C34.4956 22.2788 34.2968 21.6864 33.9172 21.2205C33.3907 20.5532 32.6974 20.1231 31.9994 19.6758C30.2457 18.5561 28.5694 17.3104 26.7843 16.2352C26.326 15.9445 25.8177 15.7457 25.2867 15.6494C24.3471 15.4962 22.9945 16.7147 22.9848 17.8739C22.9751 19.5423 22.9896 21.2403 22.9606 22.9383L22.9631 22.9507Z" fill="#BDCAEE"/>
<path d="M6.88477 16.4584C6.9651 15.8563 7.12098 15.2673 7.34854 14.706C8.35821 11.9872 9.90411 9.61689 11.7664 7.44678C14.3268 4.46349 17.537 2.47875 21.1554 1.149C23.2995 0.391973 25.5515 0.00442209 27.8197 0.00215292C29.5873 -0.0223122 31.3518 0.161805 33.0782 0.55086C35.4345 1.10853 37.684 2.06235 39.7352 3.37349C43.3174 5.57326 45.9768 8.64306 47.873 12.4321C48.4285 13.5419 48.9913 14.6566 49.3102 15.8578C49.4225 16.1807 49.463 16.5253 49.4285 16.8663C49.2474 17.9142 48.0251 18.1219 47.315 17.672C46.9891 17.4723 46.7285 17.1781 46.5662 16.8267C46.4647 16.6067 46.3705 16.3843 46.286 16.1569C45.3198 13.5369 43.7884 11.2853 41.9381 9.2585C39.9323 7.07832 37.4811 5.37778 34.7594 4.27812C33.5074 3.79804 32.2058 3.46632 30.8801 3.28945C29.9752 3.12774 29.0594 3.03849 28.141 3.02251C26.2209 3.00228 24.31 3.29769 22.4815 3.89748C20.6278 4.54811 18.8737 5.46432 17.2713 6.61877C15.2693 8.05636 13.5487 9.86561 12.1988 11.9526C11.3321 13.1888 10.6159 14.5284 10.0659 15.9419C9.94146 16.3877 9.75692 16.8136 9.51763 17.2073C9.34322 17.4562 9.10315 17.649 8.82552 17.7632C8.54788 17.8775 8.24419 17.9084 7.94999 17.8524C7.41134 17.7832 7.1239 17.3804 6.94998 16.8811C6.90697 16.7445 6.88496 16.6019 6.88477 16.4584Z" fill="#BDCAEE"/>
<path d="M27.8532 44.0001C23.6343 43.9429 19.5187 42.6569 15.9883 40.2926C14.331 39.2306 12.8228 37.9425 11.5052 36.464C9.69845 34.3804 8.16945 32.1065 7.15736 29.5038C7.07403 29.2536 7.00864 28.9975 6.96171 28.7376C6.88355 28.4633 6.89451 28.1704 6.99295 27.9029C7.09139 27.6355 7.27199 27.408 7.50761 27.2546C7.7338 27.081 8.00562 26.9807 8.28804 26.9666C8.57046 26.9525 8.85053 27.0252 9.09216 27.1755C9.52038 27.4226 9.84394 27.8232 10.0004 28.3001C10.8139 30.3595 11.9658 32.2613 13.4062 33.9231C15.229 36.0521 17.4455 37.791 19.928 39.0395C21.3866 39.7484 22.9295 40.2594 24.5174 40.5595C25.7732 40.8316 27.0552 40.9569 28.3387 40.9327C31.2614 40.8487 34.0682 40.2283 36.6769 38.8318C40.0704 37.0396 42.9172 34.3274 44.9064 30.9918C45.4427 30.1123 45.9134 29.1927 46.3146 28.2408C46.5755 27.613 46.9837 27.1557 47.6601 27.0297C47.8658 26.9954 48.0765 27.0114 48.275 27.0762C48.4736 27.141 48.6544 27.2529 48.8027 27.4027C48.951 27.5525 49.0626 27.7361 49.1285 27.9384C49.1944 28.1408 49.2127 28.3561 49.1818 28.5671C49.0889 29.2021 48.8649 29.8096 48.5248 30.3491C48.3694 30.5997 48.2306 30.8606 48.1093 31.1302C47.9725 31.5027 47.7648 31.8438 47.4982 32.1337C47.4583 32.1716 47.427 32.218 47.4064 32.2696C47.155 32.9254 46.8045 33.5368 46.3678 34.0813C45.904 34.6795 45.5055 35.3171 45.0006 35.9005C44.532 36.4319 44.0682 36.9657 43.5827 37.4798C41.3194 39.8922 38.5755 41.5358 35.5344 42.6703C33.8386 43.2952 32.0727 43.6988 30.2783 43.8715C29.4691 43.9655 28.6648 43.9729 27.8532 44.0001Z" fill="#BDCAEE"/>
<path d="M13.3166 22.3979C13.3166 24.1058 13.3166 25.8162 13.3166 27.5241C13.3371 27.8234 13.2436 28.1193 13.0557 28.3496C12.9759 28.4581 12.8729 28.5464 12.7546 28.6079C12.6364 28.6693 12.5059 28.7022 12.3732 28.7041C12.2406 28.7061 12.1093 28.6769 11.9893 28.6189C11.8694 28.5608 11.764 28.4755 11.6813 28.3694C11.4352 28.0999 11.2913 27.7493 11.2755 27.3807C11.1233 24.1182 11.1765 20.8556 11.1789 17.5905C11.1789 17.0468 11.2248 16.5129 11.8142 16.2187C12.5581 15.848 13.319 16.2855 13.3045 17.1333C13.2755 18.8931 13.1765 20.6381 13.3166 22.3979Z" fill="#7C94DE"/>
<path d="M44.9711 22.3681C44.9711 23.9994 44.9711 25.6307 44.9711 27.262C44.9811 27.6944 44.8559 28.1187 44.6136 28.4731C44.5623 28.5504 44.495 28.6152 44.4166 28.663C44.3381 28.7108 44.2504 28.7405 44.1595 28.75C43.9943 28.783 43.8238 28.7762 43.6616 28.73C43.4994 28.6838 43.35 28.5995 43.2252 28.4838C43.1005 28.3682 43.0038 28.2243 42.9429 28.0637C42.882 27.9031 42.8586 27.7301 42.8745 27.5586C43.0122 25.3786 42.9421 23.1961 42.9446 21.0137C42.9446 19.9113 42.9639 18.809 42.8745 17.7091C42.8471 17.4451 42.87 17.1781 42.9421 16.9231C42.9959 16.6788 43.1323 16.4617 43.3271 16.3102C43.522 16.1588 43.7629 16.0826 44.0074 16.0951C44.2555 16.1236 44.4862 16.2395 44.6598 16.4231C44.8335 16.6067 44.9393 16.8464 44.9591 17.101C44.9653 17.2114 44.9653 17.3219 44.9591 17.4322C44.9591 19.08 44.9591 20.7228 44.9591 22.3607L44.9711 22.3681Z" fill="#7C94DE"/>
<path d="M5.74664 22.39C5.74664 23.2501 5.74664 24.1201 5.74664 24.9679C5.71363 25.2623 5.58203 25.536 5.37419 25.7423C5.16636 25.9487 4.89511 26.075 4.60654 26.0999C4.12344 26.0999 3.67416 25.5784 3.66692 25.0223C3.66692 24.6491 3.68866 24.2808 3.70315 23.9002C3.75871 22.5111 3.59687 21.127 3.58479 19.7404C3.57099 19.5979 3.5876 19.454 3.63347 19.3187C3.67935 19.1834 3.7534 19.06 3.85049 18.9569C3.99259 18.7876 4.18283 18.668 4.39462 18.6148C4.6064 18.5616 4.82913 18.5775 5.03166 18.6603C5.24386 18.7329 5.42753 18.8736 5.55544 19.0615C5.68336 19.2494 5.74871 19.4744 5.74181 19.7033C5.74181 20.5956 5.74181 21.4878 5.74181 22.3801L5.74664 22.39Z" fill="#BDCAEE"/>
<path d="M52.2803 22.5138C52.2296 23.2924 52.3697 24.1946 52.2803 25.0967C52.2617 25.3563 52.1463 25.5987 51.9579 25.7735C51.7694 25.9484 51.5225 26.0423 51.2682 26.0359C51.0177 26.0181 50.782 25.9082 50.6044 25.7265C50.4269 25.5448 50.3195 25.3036 50.302 25.0473C50.2875 24.8397 50.302 24.6296 50.302 24.4195C50.2875 22.9217 50.3286 21.4238 50.2489 19.926C50.203 19.0708 50.732 18.5419 51.4904 18.6259C51.69 18.6429 51.8772 18.7321 52.0184 18.8775C52.1596 19.0229 52.2456 19.215 52.261 19.4193C52.3962 20.408 52.2682 21.3991 52.2803 22.5138Z" fill="#BDCAEE"/>
<path d="M46.6331 22.2644C46.6331 21.691 46.6331 21.1176 46.6331 20.5342C46.6273 20.2508 46.7219 19.9748 46.8995 19.7572C47.0771 19.5395 47.3256 19.395 47.5993 19.3503C48.0993 19.3083 48.6065 19.768 48.7104 20.339C48.7447 20.6343 48.7488 20.9326 48.7225 21.2288C48.6983 22.2174 48.6935 23.2061 48.6717 24.1948C48.6596 24.7558 48.2973 25.1093 47.7055 25.1834C47.4723 25.2053 47.2396 25.1358 47.0545 24.989C46.8693 24.8423 46.7455 24.6291 46.7079 24.3925C46.6742 24.22 46.6572 24.0445 46.6572 23.8685C46.6572 23.5942 46.6572 23.3173 46.6572 23.043C46.6572 22.7686 46.6572 22.514 46.6572 22.2496L46.6331 22.2644Z" fill="#9DAFE6"/>
<path d="M9.42959 22.4221C9.42959 23.0722 9.40302 23.7247 9.42959 24.3723C9.45616 24.8913 8.81123 25.2398 8.36436 25.2868C8.15677 25.2837 7.95633 25.2087 7.79576 25.074C7.63519 24.9394 7.52399 24.753 7.4803 24.5453C7.4406 24.3734 7.41794 24.1978 7.41267 24.0213C7.39817 22.8967 7.3861 21.7721 7.38851 20.645C7.36801 20.3994 7.43214 20.1543 7.5698 19.952C7.70745 19.7498 7.90993 19.6032 8.14214 19.5377C8.28101 19.4824 8.43078 19.4619 8.57897 19.4779C8.72716 19.4939 8.86946 19.5459 8.99402 19.6296C9.11858 19.7133 9.22178 19.8262 9.29503 19.959C9.36828 20.0918 9.40944 20.2405 9.41509 20.3929C9.43925 21.0652 9.41509 21.7375 9.41509 22.4098L9.42959 22.4221Z" fill="#9DAFE6"/>
<path d="M2.35999 22.4224C2.35999 22.9167 1.81167 23.7645 1.3938 23.9375C1.30338 23.9745 1.20462 23.9848 1.10877 23.9671C0.577365 23.8806 0.0701147 23.3863 0.0193897 22.8994C-0.0772293 21.9676 0.186058 21.4164 0.835821 21.1692C1.48558 20.9221 2.26578 21.4683 2.35274 22.2938C2.35757 22.3383 2.35757 22.3927 2.35999 22.4224Z" fill="#D8DFF5"/>
<path d="M53.668 22.4045C53.668 21.9101 53.7308 21.4677 54.2018 21.2106C54.3529 21.1292 54.5192 21.0816 54.6896 21.0707C54.8601 21.0599 55.0308 21.0862 55.1906 21.1479C55.3504 21.2095 55.4956 21.3052 55.6166 21.4285C55.7376 21.5518 55.8317 21.6999 55.8926 21.8632C56.0013 22.1418 56.0283 22.4467 55.9704 22.7408C55.9125 23.0349 55.7722 23.3053 55.5665 23.5192C55.2598 23.8158 54.8974 24.0011 54.4772 23.8528C54.2769 23.7808 54.0999 23.6536 53.9656 23.4853C53.8314 23.317 53.7451 23.114 53.7163 22.8988C53.6907 22.7351 53.6746 22.5701 53.668 22.4045Z" fill="#D8DFF5"/>
<path d="M25.0244 22.8254C24.9761 21.6019 25.0413 20.3785 24.9616 19.1575C24.9477 18.8819 24.9656 18.6057 25.0147 18.3344C25.1017 17.803 25.4761 17.5929 25.9688 17.8079C26.5848 18.0675 27.0896 18.505 27.6234 18.8955C28.8823 19.8393 30.199 20.6996 31.5655 21.4709C31.8753 21.6107 32.1304 21.8526 32.2901 22.1581C32.3842 22.3397 32.425 22.5454 32.4074 22.7502C32.3898 22.955 32.3147 23.1502 32.1911 23.3123C32.0582 23.4928 31.8529 23.6238 31.8143 23.8783C31.7998 23.9846 31.6863 23.9945 31.6017 23.9846C31.3416 23.9804 31.0892 24.0756 30.894 24.2516C30.3771 24.6075 29.8698 24.9807 29.3843 25.3836C29.0534 25.6604 28.6041 25.737 28.2587 26.0163C27.8626 26.3352 27.4374 26.6169 27.051 26.958C26.6967 27.2435 26.2838 27.4429 25.8432 27.5413C25.5558 27.6204 25.3722 27.435 25.2514 27.1928C25.1146 26.9031 25.0444 26.5852 25.0461 26.2635C25.0123 25.1166 25.0244 23.9723 25.0244 22.8254Z" fill="#7C94DE"/>
<path d="M2.93137 50.8182L5.76518 59.1108H5.87953L8.71333 50.8182H10.3738L6.70978 61H4.93493L1.27086 50.8182H2.93137ZM51.1508 61.1541C50.3985 61.1541 49.7505 60.9934 49.2069 60.6719C48.6667 60.3471 48.2491 59.8913 47.9541 59.3047C47.6624 58.7147 47.5166 58.0237 47.5166 57.2315C47.5166 56.4493 47.6624 55.7599 47.9541 55.1634C48.2491 54.5668 48.6601 54.1011 49.1871 53.7663C49.7174 53.4316 50.3372 53.2642 51.0464 53.2642C51.4773 53.2642 51.8949 53.3355 52.2993 53.478C52.7036 53.6205 53.0666 53.8442 53.3881 54.1491C53.7095 54.4541 53.9631 54.8501 54.1487 55.3374C54.3343 55.8213 54.4271 56.4096 54.4271 57.1023V57.6293H48.3568V56.5156H52.9704C52.9704 56.1245 52.8909 55.7782 52.7318 55.4766C52.5727 55.1716 52.349 54.9313 52.0606 54.7557C51.7756 54.58 51.4408 54.4922 51.0564 54.4922C50.6388 54.4922 50.2742 54.5949 49.9626 54.8004C49.6544 55.0026 49.4157 55.2678 49.2467 55.5959C49.081 55.9207 48.9981 56.2737 48.9981 56.6548V57.5249C48.9981 58.0353 49.0876 58.4695 49.2666 58.8274C49.4489 59.1854 49.7024 59.4588 50.0273 59.6477C50.3521 59.8333 50.7316 59.9261 51.1657 59.9261C51.4475 59.9261 51.7043 59.8864 51.9363 59.8068C52.1684 59.724 52.3689 59.6013 52.5379 59.4389C52.7069 59.2765 52.8362 59.076 52.9257 58.8374L54.3327 59.0909C54.22 59.5052 54.0178 59.8681 53.7261 60.1797C53.4378 60.4879 53.0748 60.7282 52.6373 60.9006C52.2032 61.0696 51.7077 61.1541 51.1508 61.1541Z" fill="#D8DFF5"/>
<path d="M11.7249 61V53.3636H13.2114V61H11.7249ZM12.4756 52.1854C12.2171 52.1854 11.995 52.0992 11.8094 51.9268C11.6271 51.7512 11.536 51.5424 11.536 51.3004C11.536 51.0552 11.6271 50.8464 11.8094 50.674C11.995 50.4983 12.2171 50.4105 12.4756 50.4105C12.7341 50.4105 12.9545 50.4983 13.1368 50.674C13.3224 50.8464 13.4152 51.0552 13.4152 51.3004C13.4152 51.5424 13.3224 51.7512 13.1368 51.9268C12.9545 52.0992 12.7341 52.1854 12.4756 52.1854ZM40.979 56.4659V61H39.4925V53.3636H40.9193V54.6065H41.0138C41.1894 54.2022 41.4645 53.8774 41.839 53.6321C42.2169 53.3868 42.6925 53.2642 43.2659 53.2642C43.7863 53.2642 44.242 53.3736 44.6331 53.5923C45.0242 53.8078 45.3274 54.1293 45.5429 54.5568C45.7583 54.9844 45.866 55.513 45.866 56.1428V61H44.3795V56.3217C44.3795 55.7682 44.2354 55.3357 43.947 55.0241C43.6586 54.7093 43.2626 54.5518 42.7588 54.5518C42.4141 54.5518 42.1075 54.6264 41.839 54.7756C41.5739 54.9247 41.3634 55.1435 41.2077 55.4318C41.0552 55.7169 40.979 56.0616 40.979 56.4659Z" fill="#BDCAEE"/>
<path d="M18.4278 61.1541C17.7119 61.1541 17.0872 60.9901 16.5535 60.6619C16.0199 60.3338 15.6056 59.8748 15.3106 59.2848C15.0157 58.6948 14.8682 58.0054 14.8682 57.2166C14.8682 56.4245 15.0157 55.7318 15.3106 55.1385C15.6056 54.5452 16.0199 54.0845 16.5535 53.7564C17.0872 53.4283 17.7119 53.2642 18.4278 53.2642C19.1437 53.2642 19.7685 53.4283 20.3021 53.7564C20.8357 54.0845 21.25 54.5452 21.545 55.1385C21.84 55.7318 21.9875 56.4245 21.9875 57.2166C21.9875 58.0054 21.84 58.6948 21.545 59.2848C21.25 59.8748 20.8357 60.3338 20.3021 60.6619C19.7685 60.9901 19.1437 61.1541 18.4278 61.1541ZM18.4328 59.9062C18.8968 59.9062 19.2813 59.7836 19.5862 59.5384C19.8911 59.2931 20.1165 58.9666 20.2623 58.5589C20.4115 58.1513 20.4861 57.7022 20.4861 57.2116C20.4861 56.7244 20.4115 56.277 20.2623 55.8693C20.1165 55.4583 19.8911 55.1286 19.5862 54.88C19.2813 54.6314 18.8968 54.5071 18.4328 54.5071C17.9655 54.5071 17.5777 54.6314 17.2694 54.88C16.9645 55.1286 16.7375 55.4583 16.5883 55.8693C16.4425 56.277 16.3696 56.7244 16.3696 57.2116C16.3696 57.7022 16.4425 58.1513 16.5883 58.5589C16.7375 58.9666 16.9645 59.2931 17.2694 59.5384C17.5777 59.7836 17.9655 59.9062 18.4328 59.9062ZM36.0036 57.8331V53.3636H37.4951V61H36.0335V59.6776H35.9539C35.7783 60.0852 35.4965 60.425 35.1088 60.6967C34.7243 60.9652 34.2454 61.0994 33.672 61.0994C33.1814 61.0994 32.7472 60.9917 32.3694 60.7763C31.9949 60.5575 31.6999 60.2344 31.4845 59.8068C31.2723 59.3793 31.1663 58.8506 31.1663 58.2209V53.3636H32.6528V58.0419C32.6528 58.5623 32.797 58.9766 33.0853 59.2848C33.3737 59.593 33.7482 59.7472 34.2089 59.7472C34.4873 59.7472 34.7641 59.6776 35.0392 59.5384C35.3176 59.3991 35.5479 59.1887 35.7302 58.907C35.9158 58.6252 36.007 58.2673 36.0036 57.8331Z" fill="#9DAFE6"/>
<path d="M22.7034 52.1406V50.8182H30.5834V52.1406H27.4065V61H25.8753V52.1406H22.7034Z" fill="#7C94DE"/>
</svg>
