<svg width="20" height="20" viewBox="0 0 20 20" fill="none" xmlns="http://www.w3.org/2000/svg">
<path d="M14.6164 6.92495C15.7486 6.92495 16.6664 6.00713 16.6664 4.87495C16.6664 3.74277 15.7486 2.82495 14.6164 2.82495C13.4842 2.82495 12.5664 3.74277 12.5664 4.87495C12.5664 6.00713 13.4842 6.92495 14.6164 6.92495Z" stroke="#95A7C0" stroke-miterlimit="10" stroke-linecap="round" stroke-linejoin="round"/>
<path d="M5.38301 6.92495C6.5152 6.92495 7.43301 6.00713 7.43301 4.87495C7.43301 3.74277 6.5152 2.82495 5.38301 2.82495C4.25083 2.82495 3.33301 3.74277 3.33301 4.87495C3.33301 6.00713 4.25083 6.92495 5.38301 6.92495Z" stroke="#95A7C0" stroke-miterlimit="10" stroke-linecap="round" stroke-linejoin="round"/>
<path d="M14.6164 17.175C15.7486 17.175 16.6664 16.2571 16.6664 15.125C16.6664 13.9928 15.7486 13.075 14.6164 13.075C13.4842 13.075 12.5664 13.9928 12.5664 15.125C12.5664 16.2571 13.4842 17.175 14.6164 17.175Z" stroke="#95A7C0" stroke-miterlimit="10" stroke-linecap="round" stroke-linejoin="round"/>
<path d="M5.38301 17.175C6.5152 17.175 7.43301 16.2571 7.43301 15.125C7.43301 13.9928 6.5152 13.075 5.38301 13.075C4.25083 13.075 3.33301 13.9928 3.33301 15.125C3.33301 16.2571 4.25083 17.175 5.38301 17.175Z" stroke="#95A7C0" stroke-miterlimit="10" stroke-linecap="round" stroke-linejoin="round"/>
</svg>
