<svg width="16" height="16" viewBox="0 0 16 16" fill="none" xmlns="http://www.w3.org/2000/svg">
<path d="M4.18742 14.6667C5.33617 14.6667 6.26742 13.7354 6.26742 12.5867C6.26742 11.4379 5.33617 10.5067 4.18742 10.5067C3.03867 10.5067 2.10742 11.4379 2.10742 12.5867C2.10742 13.7354 3.03867 14.6667 4.18742 14.6667Z" stroke="#D8DFF5" stroke-linecap="round" stroke-linejoin="round"/>
<path d="M13.8942 11.2002V3.06691C13.8942 1.33358 12.8076 1.09358 11.7076 1.39358L7.54758 2.52691C6.78758 2.73358 6.26758 3.33358 6.26758 4.20025V5.64691V6.62025V12.5802" stroke="#D8DFF5" stroke-linecap="round" stroke-linejoin="round"/>
<path d="M11.8124 13.2798C12.9612 13.2798 13.8924 12.3486 13.8924 11.1998C13.8924 10.0511 12.9612 9.11981 11.8124 9.11981C10.6637 9.11981 9.73242 10.0511 9.73242 11.1998C9.73242 12.3486 10.6637 13.2798 11.8124 13.2798Z" stroke="#D8DFF5" stroke-linecap="round" stroke-linejoin="round"/>
<path d="M6.26758 6.34691L13.8942 4.26691" stroke="#D8DFF5" stroke-linecap="round" stroke-linejoin="round"/>
</svg>
