<svg width="25" height="25" viewBox="0 0 25 25" fill="none" xmlns="http://www.w3.org/2000/svg">
<path d="M12.8652 21.8747H9.01106C4.06314 21.8747 2.08398 19.8955 2.08398 14.9476V9.01012C2.08398 4.0622 4.06314 2.08301 9.01106 2.08301H14.9486C19.8965 2.08301 21.8757 4.0622 21.8757 9.01012V12.8642" stroke="#D8DFF5" stroke-width="1.5" stroke-linecap="round" stroke-linejoin="round"/>
<path d="M6.99967 15.0203C7.83385 15.0203 8.51008 14.3441 8.51008 13.5099C8.51008 12.6757 7.83385 11.9995 6.99967 11.9995C6.16549 11.9995 5.48926 12.6757 5.48926 13.5099C5.48926 14.3441 6.16549 15.0203 6.99967 15.0203Z" stroke="#D8DFF5" stroke-width="1.5" stroke-linecap="round" stroke-linejoin="round"/>
<path d="M14.0413 12.4998V6.60399C14.0413 5.34358 13.2497 5.17687 12.458 5.39562L9.44761 6.21852C8.90594 6.36435 8.52051 6.80189 8.52051 7.42689V8.47898V9.18731V13.5102" stroke="#D8DFF5" stroke-width="1.5" stroke-linecap="round" stroke-linejoin="round"/>
<path d="M12.5309 14.0101C13.3651 14.0101 14.0413 13.3339 14.0413 12.4997C14.0413 11.6655 13.3651 10.9893 12.5309 10.9893C11.6967 10.9893 11.0205 11.6655 11.0205 12.4997C11.0205 13.3339 11.6967 14.0101 12.5309 14.0101Z" stroke="#D8DFF5" stroke-width="1.5" stroke-linecap="round" stroke-linejoin="round"/>
<path d="M8.50977 9.19793L14.041 7.6875" stroke="#D8DFF5" stroke-width="1.5" stroke-linecap="round" stroke-linejoin="round"/>
<path d="M18.6878 22.1667C20.5288 22.1667 22.0212 20.6743 22.0212 18.8333C22.0212 16.9924 20.5288 15.5 18.6878 15.5C16.8469 15.5 15.3545 16.9924 15.3545 18.8333C15.3545 20.6743 16.8469 22.1667 18.6878 22.1667Z" stroke="#D8DFF5" stroke-width="1.5" stroke-linecap="round" stroke-linejoin="round"/>
<path d="M22.6462 22.7917L21.6045 21.75" stroke="#D8DFF5" stroke-width="1.5" stroke-linecap="round" stroke-linejoin="round"/>
</svg>
