<svg width="48" height="48" viewBox="0 0 48 48" fill="none" xmlns="http://www.w3.org/2000/svg">
<rect width="48" height="48" rx="24" fill="#D8DFF5"/>
<path d="M18.2802 34C20.0033 34 21.4002 32.6031 21.4002 30.88C21.4002 29.1569 20.0033 27.76 18.2802 27.76C16.557 27.76 15.1602 29.1569 15.1602 30.88C15.1602 32.6031 16.557 34 18.2802 34Z" stroke="#304FAB" stroke-width="1.5" stroke-linecap="round" stroke-linejoin="round"/>
<path d="M32.8404 28.8003V16.6003C32.8404 14.0003 31.2104 13.6403 29.5604 14.0903L23.3204 15.7903C22.1804 16.1003 21.4004 17.0003 21.4004 18.3003V20.4703V21.9303V30.8703" stroke="#304FAB" stroke-width="1.5" stroke-linecap="round" stroke-linejoin="round"/>
<path d="M29.7196 31.9197C31.4427 31.9197 32.8396 30.5228 32.8396 28.7997C32.8396 27.0766 31.4427 25.6797 29.7196 25.6797C27.9965 25.6797 26.5996 27.0766 26.5996 28.7997C26.5996 30.5228 27.9965 31.9197 29.7196 31.9197Z" stroke="#304FAB" stroke-width="1.5" stroke-linecap="round" stroke-linejoin="round"/>
<path d="M21.4004 21.5204L32.8404 18.4004" stroke="#304FAB" stroke-width="1.5" stroke-linecap="round" stroke-linejoin="round"/>
</svg>
