<svg width="32" height="32" viewBox="0 0 32 32" fill="none" xmlns="http://www.w3.org/2000/svg">
<path d="M16 8.58667V13.0267" stroke="#B8C4D5" stroke-width="1.5" stroke-miterlimit="10" stroke-linecap="round"/>
<path d="M16.0265 2.66675C11.1199 2.66675 7.14653 6.64008 7.14653 11.5467V14.3467C7.14653 15.2534 6.7732 16.6134 6.30653 17.3867L4.6132 20.2134C3.5732 21.9601 4.2932 23.9067 6.2132 24.5467C12.5865 26.6667 19.4799 26.6667 25.8532 24.5467C27.6532 23.9467 28.4265 21.8401 27.4532 20.2134L25.7599 17.3867C25.2932 16.6134 24.9199 15.2401 24.9199 14.3467V11.5467C24.9065 6.66675 20.9065 2.66675 16.0265 2.66675Z" stroke="#B8C4D5" stroke-width="1.5" stroke-miterlimit="10" stroke-linecap="round"/>
<path d="M20.4401 25.0933C20.4401 27.5333 18.4401 29.5333 16.0001 29.5333C14.7867 29.5333 13.6667 29.0266 12.8667 28.2266C12.0667 27.4266 11.5601 26.3066 11.5601 25.0933" stroke="#B8C4D5" stroke-width="1.5" stroke-miterlimit="10"/>
</svg>
