<svg width="32" height="32" viewBox="0 0 32 32" fill="none" xmlns="http://www.w3.org/2000/svg">
<path d="M2.66797 4H29.3346" stroke="#D8DFF5" stroke-width="1.5" stroke-miterlimit="10" stroke-linecap="round" stroke-linejoin="round"/>
<path d="M2.66797 12H14.668" stroke="#D8DFF5" stroke-width="1.5" stroke-miterlimit="10" stroke-linecap="round" stroke-linejoin="round"/>
<path d="M2.66797 20H10.668" stroke="#D8DFF5" stroke-width="1.5" stroke-miterlimit="10" stroke-linecap="round" stroke-linejoin="round"/>
<path d="M2.66797 28H8.0013" stroke="#D8DFF5" stroke-width="1.5" stroke-miterlimit="10" stroke-linecap="round" stroke-linejoin="round"/>
<path d="M15.7856 29.3338C17.3909 29.3338 18.6922 28.0325 18.6922 26.4272C18.6922 24.8219 17.3909 23.5205 15.7856 23.5205C14.1803 23.5205 12.8789 24.8219 12.8789 26.4272C12.8789 28.0325 14.1803 29.3338 15.7856 29.3338Z" stroke="#D8DFF5" stroke-width="1.5" stroke-linecap="round" stroke-linejoin="round"/>
<path d="M29.3314 24.4936V13.1469C29.3314 10.7336 27.8114 10.4002 26.2781 10.8136L20.4781 12.4002C19.4247 12.6936 18.6914 13.5202 18.6914 14.7336V16.7603V18.1203V26.4269" stroke="#D8DFF5" stroke-width="1.5" stroke-linecap="round" stroke-linejoin="round"/>
<path d="M26.4262 27.4002C28.0315 27.4002 29.3329 26.0989 29.3329 24.4936C29.3329 22.8883 28.0315 21.5869 26.4262 21.5869C24.8209 21.5869 23.5195 22.8883 23.5195 24.4936C23.5195 26.0989 24.8209 27.4002 26.4262 27.4002Z" stroke="#D8DFF5" stroke-width="1.5" stroke-linecap="round" stroke-linejoin="round"/>
<path d="M18.6914 18.1332L29.3314 15.2266" stroke="#D8DFF5" stroke-width="1.5" stroke-linecap="round" stroke-linejoin="round"/>
</svg>
