<svg width="32" height="32" viewBox="0 0 32 32" fill="none" xmlns="http://www.w3.org/2000/svg">
<path d="M29.3346 8.33268V15.1327C29.3346 16.826 28.7746 18.2527 27.7746 19.2393C26.788 20.2393 25.3613 20.7993 23.668 20.7993V23.2126C23.668 24.1193 22.6546 24.666 21.908 24.1593L20.6146 23.306C20.7346 22.8927 20.788 22.4393 20.788 21.9593V16.5327C20.788 13.8127 18.9746 11.9993 16.2546 11.9993H7.20129C7.01463 11.9993 6.8413 12.0127 6.66797 12.026V8.33268C6.66797 4.93268 8.93464 2.66602 12.3346 2.66602H23.668C27.068 2.66602 29.3346 4.93268 29.3346 8.33268Z" stroke="#D8DFF5" stroke-width="1.5" stroke-miterlimit="10" stroke-linecap="round" stroke-linejoin="round"/>
<path d="M20.788 16.5334V21.96C20.788 22.44 20.7346 22.8933 20.6146 23.3066C20.1213 25.2666 18.4946 26.4933 16.2546 26.4933H12.628L8.6013 29.1733C8.0013 29.5867 7.20129 29.1467 7.20129 28.4267V26.4933C5.84129 26.4933 4.70797 26.04 3.92131 25.2533C3.12131 24.4533 2.66797 23.32 2.66797 21.96V16.5334C2.66797 14 4.2413 12.2534 6.66797 12.0267C6.8413 12.0134 7.01463 12 7.20129 12H16.2546C18.9746 12 20.788 13.8134 20.788 16.5334Z" stroke="#D8DFF5" stroke-width="1.5" stroke-miterlimit="10" stroke-linecap="round" stroke-linejoin="round"/>
</svg>
