<svg width="196" height="116" viewBox="0 0 196 116" fill="none" xmlns="http://www.w3.org/2000/svg">
<path d="M85.3008 0.5C80.1603 0.500082 76.2511 2.22365 73.2051 5.21289C70.1442 8.21689 67.928 12.5272 66.2461 17.7373C62.8773 28.1731 61.7143 42.0038 60.0547 55.6719L60.002 56.1113H4.2334C3.1338 56.1113 2.16286 56.362 1.48438 56.7412C0.789555 57.1296 0.5 57.5876 0.5 57.9785C0.500122 58.3694 0.789702 58.8265 1.48438 59.2148C2.16287 59.5941 3.13369 59.8447 4.2334 59.8447H20.1943L20.251 60.2803C21.4725 69.6693 23.0445 79.0732 25.8799 86.1338C27.0715 89.1007 28.7648 92.5049 31.5244 95.166C34.2695 97.813 38.0926 99.747 43.6035 99.7471C49.5865 99.7471 53.6717 97.4096 56.5654 94.1963C59.4759 90.9644 61.1962 86.8295 62.3848 83.2295C64.5187 76.7661 65.8589 68.6951 66.957 60.2803L67.0137 59.8447H81.3379C82.4377 59.8447 83.4094 59.5941 84.0879 59.2148C84.7823 58.8266 85.0712 58.3694 85.0713 57.9785C85.0713 57.5876 84.7826 57.1296 84.0879 56.7412C83.4094 56.3619 82.4377 56.1113 81.3379 56.1113H67.4805L67.5488 55.5518C69.058 43.0688 70.4733 27.9346 73.8975 17.5635C75.849 11.6514 78.1205 8.31686 80.2061 6.45801C82.3015 4.59051 84.1868 4.23348 85.3008 4.2334C86.204 4.2334 88.0484 4.56459 90.1719 6.7207C92.2824 8.86386 94.6585 12.7972 96.6953 19.9785C99.6336 30.3446 101.031 44.2765 102.435 58.1807C103.841 72.1162 105.254 86.0265 108.208 96.4453C109.483 100.941 111.227 105.704 114.134 109.339C117.022 112.95 121.063 115.456 127.001 115.456C131.588 115.456 135.175 113.968 138.046 111.274C140.93 108.567 143.119 104.615 144.838 99.6465C148.28 89.6971 149.779 75.8596 151.354 60.2939L151.399 59.8447H186.987L187.045 60.2793C188.143 68.6945 189.483 76.7664 191.616 83.2295C192.805 86.8296 194.525 90.9645 197.436 94.1963C200.329 97.4094 204.414 99.747 210.396 99.7471C220.788 99.7471 224.801 92.6604 226.146 90.2842C228.728 85.7259 230.684 79.3376 232.283 70.1318C232.349 69.7532 232.154 69.3085 231.551 68.8984C230.954 68.4934 230.04 68.1925 228.945 68.1328C227.849 68.0737 226.833 68.2698 226.08 68.6162C225.307 68.9719 224.914 69.4327 224.842 69.8457C223.343 78.4735 221.543 84.5746 219.176 88.9326L218.945 89.3486C218.255 90.5669 217.173 92.217 215.752 93.5684C214.333 94.9173 212.526 96.0136 210.396 96.0137C209.282 96.0137 207.396 95.6568 205.301 93.7891C203.215 91.9302 200.944 88.5957 198.992 82.6836C196.927 76.4279 195.614 68.5691 194.541 60.4102L194.467 59.8447H249.767C250.866 59.8447 251.837 59.5941 252.516 59.2148C253.21 58.8265 253.5 58.3694 253.5 57.9785C253.5 57.5876 253.21 57.1296 252.516 56.7412C251.837 56.3621 250.866 56.1113 249.767 56.1113H193.997L193.943 55.6719C192.272 41.9072 190.918 27.4383 187.478 17.0176C186.289 13.4177 184.57 9.28262 181.659 6.05078C178.765 2.83752 174.68 0.5 168.697 0.5C162.424 0.500004 158.219 3.24762 155.229 7.36523C152.218 11.5117 150.44 17.0503 149.097 22.5986C149.005 22.9763 149.169 23.4142 149.734 23.8291C150.297 24.2421 151.185 24.5629 152.275 24.6455C153.364 24.7272 154.396 24.5529 155.176 24.2207C155.977 23.8798 156.412 23.4204 156.515 22.998C158.589 14.4285 161.115 9.74434 163.387 7.19531C165.673 4.62977 167.699 4.2334 168.697 4.2334C169.811 4.2334 171.697 4.59026 173.793 6.45801C175.879 8.31691 178.15 11.6514 180.102 17.5635C183.525 27.9329 184.984 43.4212 186.451 55.5518L186.519 56.1113H151.774L151.83 55.5615C152.561 48.3398 153.338 40.9807 154.355 34.3086C154.413 33.9292 154.207 33.4831 153.592 33.0752C152.985 32.6728 152.063 32.3774 150.967 32.3252C149.87 32.273 148.858 32.4754 148.114 32.8262C147.35 33.1863 146.97 33.6474 146.907 34.0576C145.872 40.8482 145.087 48.3196 144.345 55.6621L144.299 56.1113H109.7L109.654 55.6621C108.336 42.6284 106.907 29.4342 104.094 19.5107C102.819 15.0148 101.076 10.252 98.1689 6.61719C95.2807 3.00579 91.239 0.5 85.3008 0.5ZM143.867 60.3955C142.571 73.2023 141.15 86.248 138.392 95.9775C136.356 103.159 133.981 107.092 131.87 109.235C129.747 111.392 127.902 111.724 126.999 111.724C126.096 111.724 124.252 111.391 122.129 109.235C120.018 107.092 117.643 103.159 115.607 95.9775C112.849 86.2477 111.428 73.2023 110.132 60.3955L110.076 59.8447H143.923L143.867 60.3955ZM59.458 60.4102C58.4525 68.0595 57.2367 75.4454 55.3867 81.4932L55.0078 82.6846C53.6464 86.8081 52.0072 89.9906 50.2031 92.21C48.4002 94.4278 46.4011 95.7198 44.3232 95.9688C42.2335 96.2191 40.1736 95.4021 38.29 93.6309C36.4125 91.8653 34.6847 89.1322 33.2139 85.4697C30.4761 78.6545 28.9393 69.4956 27.749 60.4102L27.6748 59.8447H59.5322L59.458 60.4102Z" stroke="#F0D800"/>
</svg>
