<svg width="16" height="16" viewBox="0 0 16 16" fill="none" xmlns="http://www.w3.org/2000/svg">
<path d="M11.3066 4.11328C12.64 5.03995 13.56 6.51328 13.7466 8.21328" stroke="#D8DFF5" stroke-width="1.5" stroke-linecap="round" stroke-linejoin="round"/>
<path d="M2.32617 8.24716C2.49951 6.55382 3.40617 5.08049 4.72617 4.14716" stroke="#D8DFF5" stroke-width="1.5" stroke-linecap="round" stroke-linejoin="round"/>
<path d="M5.45898 13.9597C6.23232 14.353 7.11232 14.573 8.03899 14.573C8.93232 14.573 9.77232 14.373 10.5257 14.0063" stroke="#D8DFF5" stroke-width="1.5" stroke-linecap="round" stroke-linejoin="round"/>
<path d="M8.03888 5.13373C9.06245 5.13373 9.89221 4.30396 9.89221 3.2804C9.89221 2.25683 9.06245 1.42706 8.03888 1.42706C7.01531 1.42706 6.18555 2.25683 6.18555 3.2804C6.18555 4.30396 7.01531 5.13373 8.03888 5.13373Z" stroke="#D8DFF5" stroke-width="1.5" stroke-linecap="round" stroke-linejoin="round"/>
<path d="M3.22052 13.2796C4.24409 13.2796 5.07385 12.4498 5.07385 11.4263C5.07385 10.4027 4.24409 9.57294 3.22052 9.57294C2.19695 9.57294 1.36719 10.4027 1.36719 11.4263C1.36719 12.4498 2.19695 13.2796 3.22052 13.2796Z" stroke="#D8DFF5" stroke-width="1.5" stroke-linecap="round" stroke-linejoin="round"/>
<path d="M12.7811 13.2796C13.8046 13.2796 14.6344 12.4498 14.6344 11.4263C14.6344 10.4027 13.8046 9.57294 12.7811 9.57294C11.7575 9.57294 10.9277 10.4027 10.9277 11.4263C10.9277 12.4498 11.7575 13.2796 12.7811 13.2796Z" stroke="#D8DFF5" stroke-width="1.5" stroke-linecap="round" stroke-linejoin="round"/>
</svg>
